<svg width="160" height="178" viewBox="0 0 160 178" fill="none" xmlns="http://www.w3.org/2000/svg">
<g clip-path="url(#clip0_45_1577)">
<path d="M80 160C79.4357 160 78.8767 160 78.3177 159.984C78.0303 159.979 77.8004 159.739 77.8056 159.451C77.8109 159.169 78.046 158.939 78.3281 158.939H78.3386C79.4671 158.965 80.6061 158.96 81.7346 158.939C82.0219 158.95 82.2623 159.164 82.2675 159.451C82.2727 159.739 82.0428 159.979 81.7555 159.984C81.1703 159.995 80.5852 160.005 79.9948 160.005L80 160ZM74.9112 159.838C74.9112 159.838 74.8903 159.838 74.8798 159.838C73.7409 159.765 72.5914 159.671 71.4525 159.551C71.1651 159.519 70.9561 159.263 70.9875 158.976C71.0188 158.688 71.2748 158.479 71.5622 158.511C72.6855 158.631 73.8245 158.725 74.9478 158.798C75.2351 158.819 75.4546 159.065 75.4389 159.352C75.4232 159.629 75.1933 159.843 74.9164 159.843L74.9112 159.838ZM85.162 159.833C84.8903 159.833 84.6604 159.619 84.6395 159.342C84.6186 159.054 84.838 158.803 85.1254 158.788C86.2539 158.715 87.3877 158.615 88.511 158.5C88.8036 158.474 89.0543 158.678 89.0857 158.965C89.117 159.253 88.9081 159.509 88.6207 159.54C87.4869 159.66 86.3323 159.76 85.1933 159.833C85.1829 159.833 85.1724 159.833 85.1567 159.833H85.162ZM68.1139 159.117C68.1139 159.117 68.0617 159.117 68.0355 159.117C66.907 158.95 65.7628 158.751 64.6447 158.532C64.3626 158.474 64.1745 158.203 64.232 157.92C64.2842 157.638 64.5559 157.45 64.8433 157.508C65.9509 157.722 67.0742 157.915 68.1923 158.082C68.4796 158.124 68.6729 158.391 68.6311 158.678C68.5946 158.939 68.3699 159.122 68.1139 159.122V159.117ZM91.9593 159.107C91.7032 159.107 91.4838 158.918 91.442 158.662C91.4002 158.375 91.5935 158.114 91.8809 158.067C92.999 157.899 94.1275 157.701 95.2299 157.487C95.512 157.429 95.7889 157.617 95.8412 157.899C95.8986 158.182 95.7106 158.459 95.4284 158.511C94.3103 158.73 93.1714 158.924 92.0376 159.096C92.0115 159.096 91.9854 159.101 91.9593 159.101V159.107ZM61.4054 157.811C61.3636 157.811 61.3218 157.811 61.2853 157.795C60.1724 157.529 59.0543 157.236 57.9572 156.917C57.6803 156.839 57.5183 156.546 57.5967 156.269C57.675 155.992 57.9676 155.83 58.2445 155.909C59.326 156.217 60.4336 156.51 61.5308 156.771C61.813 156.839 61.9854 157.121 61.9175 157.398C61.86 157.638 61.6458 157.8 61.4107 157.8L61.4054 157.811ZM98.6729 157.795C98.4378 157.795 98.2236 157.633 98.1661 157.393C98.0982 157.11 98.2706 156.828 98.5528 156.76C99.65 156.494 100.758 156.207 101.839 155.893C102.116 155.815 102.403 155.971 102.487 156.248C102.565 156.525 102.409 156.818 102.132 156.896C101.04 157.21 99.9164 157.508 98.8036 157.774C98.7618 157.785 98.72 157.79 98.6782 157.79L98.6729 157.795ZM54.8276 155.93C54.7753 155.93 54.7179 155.919 54.6604 155.903C53.5737 155.543 52.4817 155.151 51.4107 154.743C51.139 154.639 51.0084 154.336 51.1076 154.069C51.2121 153.798 51.5152 153.667 51.7816 153.766C52.837 154.169 53.9133 154.555 54.9896 154.916C55.2612 155.005 55.4128 155.303 55.3187 155.58C55.2456 155.799 55.0418 155.935 54.8224 155.935L54.8276 155.93ZM105.246 155.903C105.026 155.903 104.822 155.768 104.749 155.548C104.66 155.271 104.807 154.979 105.078 154.885C106.149 154.524 107.226 154.143 108.276 153.735C108.548 153.631 108.845 153.766 108.95 154.038C109.054 154.31 108.918 154.608 108.647 154.712C107.581 155.12 106.494 155.512 105.408 155.877C105.35 155.898 105.298 155.903 105.24 155.903H105.246ZM48.4274 153.479C48.3595 153.479 48.2863 153.463 48.2184 153.437C47.1735 152.983 46.1181 152.502 45.0836 151.995C44.8224 151.87 44.7179 151.556 44.8433 151.295C44.9687 151.034 45.2821 150.929 45.5434 151.055C46.5674 151.551 47.6071 152.032 48.6364 152.476C48.9028 152.591 49.023 152.899 48.908 153.16C48.8245 153.359 48.6311 153.474 48.4274 153.474V153.479ZM111.62 153.458C111.416 153.458 111.228 153.343 111.139 153.145C111.024 152.878 111.144 152.57 111.411 152.455C112.44 152.011 113.474 151.53 114.488 151.039C114.749 150.913 115.063 151.023 115.188 151.279C115.313 151.54 115.204 151.854 114.948 151.979C113.918 152.481 112.868 152.962 111.829 153.416C111.761 153.448 111.693 153.458 111.62 153.458ZM42.2675 150.49C42.1839 150.49 42.1003 150.469 42.0219 150.428C41.0136 149.884 40.0052 149.309 39.0282 148.724C38.7827 148.578 38.6991 148.254 38.8454 148.008C38.9916 147.763 39.3156 147.679 39.5611 147.825C40.5277 148.405 41.5256 148.97 42.5183 149.508C42.7743 149.644 42.8683 149.962 42.7273 150.218C42.6332 150.396 42.4504 150.495 42.2675 150.495V150.49ZM117.753 150.475C117.565 150.475 117.388 150.375 117.294 150.203C117.158 149.947 117.252 149.633 117.503 149.492C118.495 148.954 119.488 148.39 120.449 147.815C120.695 147.669 121.019 147.747 121.165 147.998C121.311 148.243 121.233 148.567 120.982 148.714C120.005 149.299 119.002 149.868 117.994 150.412C117.915 150.454 117.832 150.475 117.748 150.475H117.753ZM36.3898 146.979C36.2905 146.979 36.1912 146.953 36.1024 146.895C35.1463 146.268 34.1954 145.61 33.2654 144.941C33.0303 144.774 32.9781 144.445 33.1452 144.215C33.3124 143.98 33.6416 143.927 33.8767 144.095C34.791 144.753 35.7367 145.406 36.6771 146.023C36.9174 146.179 36.9854 146.503 36.8286 146.744C36.7294 146.895 36.5622 146.979 36.3898 146.979ZM123.615 146.974C123.443 146.974 123.281 146.89 123.177 146.739C123.02 146.498 123.088 146.174 123.328 146.017C124.269 145.396 125.209 144.748 126.123 144.089C126.358 143.922 126.688 143.974 126.855 144.21C127.022 144.445 126.97 144.769 126.735 144.941C125.81 145.61 124.859 146.263 123.903 146.89C123.814 146.948 123.715 146.974 123.615 146.974ZM129.154 142.976C128.997 142.976 128.845 142.908 128.741 142.778C128.563 142.553 128.6 142.224 128.83 142.046C129.713 141.351 130.596 140.625 131.452 139.888C131.672 139.7 132.001 139.726 132.189 139.946C132.377 140.165 132.351 140.494 132.132 140.683C131.264 141.43 130.371 142.166 129.478 142.872C129.383 142.945 129.269 142.982 129.154 142.982V142.976ZM30.8412 142.976C30.7262 142.976 30.6165 142.94 30.5172 142.867C29.6186 142.161 28.7252 141.425 27.8579 140.677C27.6385 140.489 27.6123 140.16 27.8004 139.941C27.9885 139.721 28.3177 139.695 28.5371 139.883C29.3939 140.62 30.2769 141.346 31.1599 142.041C31.3845 142.219 31.4263 142.548 31.2487 142.773C31.1442 142.903 30.9927 142.971 30.8359 142.971L30.8412 142.976ZM134.336 138.519C134.195 138.519 134.06 138.462 133.955 138.352C133.757 138.143 133.767 137.809 133.981 137.615C134.807 136.842 135.622 136.043 136.411 135.243C136.614 135.034 136.944 135.034 137.147 135.233C137.356 135.436 137.356 135.766 137.158 135.969C136.358 136.785 135.533 137.594 134.697 138.378C134.598 138.472 134.467 138.519 134.342 138.519H134.336ZM25.6531 138.514C25.5225 138.514 25.3971 138.467 25.2978 138.373C24.4671 137.594 23.6416 136.785 22.837 135.964C22.6332 135.76 22.6385 135.426 22.8422 135.227C23.046 135.024 23.3804 135.029 23.5789 135.233C24.373 136.043 25.1881 136.842 26.0084 137.61C26.2173 137.809 26.2278 138.138 26.0293 138.347C25.9248 138.457 25.7889 138.514 25.6479 138.514H25.6531ZM139.122 133.634C138.997 133.634 138.871 133.587 138.772 133.498C138.558 133.305 138.542 132.975 138.73 132.761C139.488 131.92 140.235 131.053 140.946 130.185C141.129 129.96 141.458 129.929 141.682 130.117C141.907 130.3 141.938 130.629 141.755 130.854C141.029 131.732 140.277 132.61 139.509 133.461C139.404 133.576 139.263 133.634 139.122 133.634ZM20.8725 133.629C20.7315 133.629 20.5852 133.571 20.4859 133.456C19.7231 132.604 18.9655 131.732 18.2393 130.849C18.0564 130.624 18.0878 130.295 18.3124 130.112C18.5319 129.929 18.8662 129.96 19.0491 130.18C19.7649 131.047 20.512 131.915 21.2644 132.756C21.4577 132.97 21.4368 133.299 21.2226 133.493C21.1233 133.582 20.9979 133.629 20.8725 133.629ZM143.474 128.356C143.365 128.356 143.255 128.32 143.161 128.252C142.931 128.079 142.884 127.75 143.056 127.52C143.741 126.616 144.41 125.686 145.047 124.761C145.209 124.521 145.538 124.464 145.773 124.626C146.014 124.788 146.071 125.117 145.909 125.352C145.261 126.287 144.587 127.228 143.892 128.147C143.788 128.283 143.631 128.356 143.474 128.356ZM16.5256 128.356C16.3689 128.356 16.2121 128.283 16.1076 128.147C15.418 127.238 14.744 126.298 14.0961 125.357C13.9342 125.117 13.9916 124.793 14.2268 124.631C14.4671 124.469 14.791 124.526 14.953 124.767C15.5904 125.692 16.2591 126.622 16.9383 127.52C17.1108 127.75 17.069 128.079 16.8339 128.252C16.7398 128.325 16.6301 128.356 16.5204 128.356H16.5256ZM12.6489 122.734C12.4765 122.734 12.3041 122.645 12.2048 122.488C11.5987 121.522 11.0031 120.529 10.4389 119.541C10.2978 119.291 10.3814 118.972 10.6322 118.831C10.883 118.685 11.2017 118.773 11.3427 119.024C11.8966 120.001 12.4869 120.978 13.0826 121.935C13.2341 122.18 13.1609 122.504 12.9206 122.656C12.837 122.708 12.7377 122.734 12.6437 122.734H12.6489ZM147.356 122.724C147.262 122.724 147.163 122.698 147.079 122.645C146.834 122.494 146.761 122.17 146.917 121.924C147.518 120.968 148.103 119.986 148.662 119.003C148.804 118.752 149.122 118.664 149.373 118.81C149.624 118.951 149.713 119.27 149.566 119.521C149.002 120.513 148.406 121.506 147.795 122.478C147.696 122.635 147.529 122.724 147.351 122.724H147.356ZM9.26855 116.798C9.08046 116.798 8.8976 116.694 8.80355 116.516C8.28109 115.502 7.77952 114.463 7.29885 113.428C7.17868 113.167 7.29363 112.853 7.55486 112.733C7.81609 112.613 8.12957 112.728 8.24974 112.989C8.71996 114.013 9.22153 115.037 9.73354 116.035C9.86416 116.291 9.76489 116.605 9.50888 116.741C9.43051 116.777 9.35214 116.798 9.26855 116.798ZM150.742 116.772C150.664 116.772 150.58 116.751 150.502 116.715C150.246 116.584 150.146 116.265 150.277 116.009C150.789 115.011 151.29 113.982 151.766 112.947C151.886 112.686 152.194 112.571 152.461 112.691C152.722 112.811 152.837 113.12 152.717 113.386C152.236 114.431 151.729 115.471 151.207 116.485C151.113 116.668 150.93 116.767 150.742 116.767V116.772ZM6.41588 110.601C6.21212 110.601 6.01358 110.481 5.92999 110.277C5.49634 109.222 5.08359 108.14 4.69697 107.064C4.5977 106.792 4.73877 106.494 5.01045 106.395C5.28213 106.296 5.57994 106.437 5.67921 106.708C6.06061 107.769 6.47335 108.835 6.89655 109.88C7.00627 110.147 6.87565 110.455 6.6092 110.559C6.5465 110.586 6.47858 110.596 6.41066 110.596L6.41588 110.601ZM153.605 110.549C153.537 110.549 153.474 110.539 153.406 110.512C153.14 110.403 153.009 110.1 153.119 109.833C153.548 108.783 153.96 107.712 154.336 106.651C154.436 106.379 154.728 106.238 155.005 106.337C155.277 106.437 155.418 106.735 155.319 107.006C154.932 108.077 154.519 109.164 154.086 110.23C154.002 110.434 153.809 110.554 153.6 110.554L153.605 110.549ZM4.10136 104.169C3.8767 104.169 3.67294 104.028 3.60502 103.803C3.26541 102.711 2.94671 101.598 2.65413 100.496C2.58098 100.219 2.74817 99.9314 3.02508 99.8583C3.30199 99.7851 3.58934 99.9523 3.66249 100.229C3.94984 101.316 4.26332 102.419 4.60293 103.495C4.68652 103.772 4.53501 104.065 4.2581 104.148C4.20585 104.164 4.1536 104.169 4.10136 104.169ZM155.92 104.096C155.867 104.096 155.815 104.091 155.763 104.075C155.486 103.991 155.334 103.699 155.418 103.422C155.752 102.34 156.066 101.243 156.353 100.156C156.426 99.8739 156.714 99.712 156.991 99.7851C157.268 99.8583 157.435 100.146 157.362 100.423C157.074 101.525 156.75 102.638 156.416 103.73C156.348 103.955 156.139 104.096 155.914 104.096H155.92ZM2.3511 97.5592C2.11076 97.5592 1.89655 97.392 1.83908 97.1464C1.59352 96.0282 1.37409 94.8944 1.17555 93.771C1.12853 93.4888 1.31661 93.2171 1.59875 93.1648C1.88088 93.1178 2.15256 93.3059 2.20481 93.5881C2.39812 94.6958 2.61755 95.8192 2.85789 96.9217C2.92059 97.2039 2.74295 97.4808 2.46082 97.5435C2.42424 97.554 2.38767 97.554 2.3511 97.554V97.5592ZM157.665 97.4808C157.628 97.4808 157.591 97.4808 157.555 97.4704C157.273 97.4077 157.095 97.1307 157.153 96.8486C157.393 95.7461 157.612 94.6227 157.8 93.5149C157.847 93.2328 158.119 93.0394 158.406 93.0917C158.689 93.1387 158.882 93.4104 158.835 93.6926C158.642 94.816 158.422 95.9498 158.177 97.0733C158.124 97.3188 157.905 97.4861 157.665 97.4861V97.4808ZM1.186 90.824C0.924765 90.824 0.705329 90.6306 0.668757 90.3694C0.522466 89.2407 0.397074 88.086 0.297806 86.9469C0.271682 86.6595 0.485893 86.4087 0.77325 86.3826C1.06061 86.3512 1.31661 86.5707 1.33751 86.858C1.43678 87.9867 1.55695 89.1205 1.70324 90.2335C1.73981 90.5209 1.53605 90.7822 1.25392 90.8187C1.23302 90.8187 1.2069 90.8187 1.186 90.8187V90.824ZM158.824 90.7456C158.824 90.7456 158.783 90.7456 158.757 90.7456C158.469 90.709 158.271 90.4477 158.307 90.1604C158.448 89.0474 158.574 87.9135 158.668 86.7849C158.694 86.4975 158.934 86.2833 159.232 86.3094C159.519 86.3355 159.734 86.5863 159.707 86.8737C159.608 88.018 159.488 89.1676 159.342 90.2962C159.305 90.5575 159.08 90.7508 158.824 90.7508V90.7456ZM0.595611 84.0103C0.318704 84.0103 0.0835946 83.7909 0.0731452 83.5087C0.0261233 82.3748 0 81.2149 0 80.0705C0 79.7832 0.23511 79.548 0.522466 79.548C0.809822 79.548 1.04493 79.7832 1.04493 80.0705C1.04493 81.1992 1.07106 82.3435 1.11808 83.4669C1.12853 83.7543 0.909091 83.9999 0.61651 84.0103C0.611285 84.0103 0.600836 84.0103 0.595611 84.0103ZM159.404 83.932C159.404 83.932 159.389 83.932 159.383 83.932C159.096 83.9215 158.871 83.6759 158.882 83.3885C158.929 82.2703 158.955 81.126 158.955 79.9922V79.8354C158.955 79.548 159.19 79.3129 159.478 79.3129C159.765 79.3129 160 79.548 160 79.8354V79.9922C160 81.1417 159.974 82.2965 159.927 83.4356C159.916 83.7177 159.681 83.9372 159.404 83.9372V83.932ZM0.590387 77.1758C0.590387 77.1758 0.574713 77.1758 0.569488 77.1758C0.282132 77.1653 0.0574713 76.9198 0.0679206 76.6324C0.114943 75.4881 0.188088 74.3333 0.282132 73.1994C0.308255 72.9121 0.553814 72.6978 0.846395 72.7239C1.13375 72.7501 1.34796 73.0009 1.32184 73.2883C1.2278 74.4117 1.15465 75.5508 1.10763 76.6794C1.09718 76.9616 0.867294 77.181 0.585162 77.181L0.590387 77.1758ZM159.399 76.9407C159.122 76.9407 158.892 76.7212 158.877 76.439C158.83 75.3156 158.751 74.1766 158.652 73.0479C158.626 72.7605 158.84 72.5045 159.127 72.4836C159.41 72.4522 159.671 72.6717 159.692 72.9591C159.791 74.0982 159.864 75.2529 159.916 76.392C159.927 76.6794 159.707 76.925 159.415 76.9354C159.41 76.9354 159.399 76.9354 159.394 76.9354L159.399 76.9407ZM1.1651 70.3622C1.1651 70.3622 1.1233 70.3622 1.09718 70.3622C0.809822 70.3256 0.606061 70.0643 0.642633 69.777C0.788924 68.6431 0.956113 67.4988 1.14943 66.3754C1.19645 66.0932 1.46813 65.8947 1.75026 65.9469C2.03239 65.9939 2.22571 66.2656 2.17868 66.5478C1.9906 67.6555 1.81818 68.7894 1.67712 69.9076C1.64577 70.1688 1.41588 70.3622 1.15987 70.3622H1.1651ZM158.804 70.127C158.542 70.127 158.323 69.9337 158.286 69.6724C158.14 68.5543 157.968 67.4256 157.774 66.3127C157.727 66.0305 157.915 65.7588 158.198 65.7065C158.485 65.6543 158.751 65.8476 158.804 66.1298C159.002 67.2532 159.175 68.3975 159.321 69.5314C159.357 69.8188 159.159 70.08 158.871 70.1166C158.851 70.1166 158.824 70.1166 158.804 70.1166V70.127ZM2.31975 63.6217C2.28318 63.6217 2.2466 63.6217 2.21003 63.6113C1.9279 63.5485 1.75026 63.2716 1.80773 62.9895C2.04807 61.8713 2.31975 60.7479 2.60711 59.6401C2.68025 59.3632 2.96238 59.196 3.24451 59.2691C3.52142 59.3423 3.68861 59.6297 3.61547 59.9066C3.32811 60.9934 3.06165 62.1064 2.82654 63.2089C2.77429 63.4545 2.55486 63.6217 2.31452 63.6217H2.31975ZM157.628 63.397C157.388 63.397 157.173 63.2298 157.116 62.9842C156.876 61.8765 156.604 60.7688 156.317 59.6819C156.243 59.405 156.411 59.1176 156.688 59.0445C156.964 58.9713 157.252 59.1385 157.325 59.4154C157.618 60.5127 157.889 61.6414 158.135 62.7595C158.198 63.0417 158.02 63.3186 157.738 63.3813C157.701 63.3918 157.665 63.3918 157.623 63.3918L157.628 63.397ZM4.05434 57.0066C4.00209 57.0066 3.94984 57.0014 3.8976 56.9857C3.62069 56.9021 3.46917 56.6095 3.55277 56.3326C3.89237 55.2405 4.2581 54.138 4.64472 53.0564C4.74399 52.7847 5.0418 52.6436 5.31348 52.7429C5.58516 52.8422 5.72623 53.14 5.62696 53.4117C5.24556 54.4776 4.88506 55.5645 4.55068 56.6409C4.48276 56.8656 4.27377 57.0119 4.05434 57.0119V57.0066ZM155.873 56.7872C155.648 56.7872 155.444 56.6461 155.371 56.4214C155.037 55.3555 154.676 54.2686 154.289 53.2027C154.19 52.931 154.331 52.6332 154.603 52.5339C154.875 52.4346 155.172 52.5757 155.272 52.8474C155.664 53.929 156.029 55.0263 156.369 56.1079C156.452 56.3848 156.301 56.6774 156.024 56.761C155.972 56.7767 155.92 56.7872 155.867 56.7872H155.873ZM6.36364 50.5535C6.29572 50.5535 6.23302 50.5431 6.1651 50.517C5.89864 50.4072 5.76803 50.1042 5.87774 49.8377C6.31139 48.777 6.77116 47.7111 7.2466 46.6712C7.36677 46.41 7.67503 46.295 7.94148 46.4152C8.20272 46.5354 8.31766 46.8437 8.19749 47.1102C7.72727 48.1343 7.27273 49.1846 6.84431 50.2348C6.76071 50.4386 6.5674 50.5588 6.35841 50.5588L6.36364 50.5535ZM153.553 50.355C153.349 50.355 153.15 50.2348 153.072 50.031C152.649 48.9964 152.189 47.9514 151.719 46.9273C151.599 46.666 151.714 46.3525 151.975 46.2323C152.236 46.1122 152.55 46.2271 152.67 46.4884C153.15 47.5282 153.61 48.5889 154.039 49.6339C154.148 49.9004 154.023 50.2087 153.757 50.3132C153.694 50.3393 153.626 50.355 153.558 50.355H153.553ZM9.2163 44.3251C9.13793 44.3251 9.05434 44.3042 8.97597 44.2677C8.71996 44.137 8.61547 43.8235 8.75131 43.5623C9.27377 42.5434 9.82236 41.5244 10.3866 40.5264C10.5277 40.2756 10.8464 40.1868 11.0972 40.3279C11.348 40.469 11.4368 40.7877 11.2905 41.0385C10.7315 42.0208 10.1881 43.0241 9.67607 44.0325C9.58203 44.2154 9.39916 44.3147 9.21108 44.3147L9.2163 44.3251ZM150.695 44.1579C150.507 44.1579 150.324 44.0534 150.23 43.8758C149.713 42.8725 149.169 41.8693 148.61 40.8922C148.469 40.6414 148.553 40.3227 148.804 40.1816C149.054 40.0405 149.373 40.1241 149.514 40.3749C150.078 41.3625 150.627 42.3762 151.155 43.3951C151.285 43.6511 151.186 43.9646 150.93 44.1005C150.852 44.1423 150.773 44.1579 150.69 44.1579H150.695ZM12.6019 38.3737C12.5078 38.3737 12.4086 38.3475 12.325 38.2953C12.0794 38.1438 12.0063 37.8198 12.1578 37.5742C12.7638 36.6023 13.4013 35.6357 14.0491 34.6951C14.2111 34.46 14.5402 34.3973 14.7753 34.5593C15.0157 34.7213 15.0731 35.0505 14.9112 35.2856C14.2738 36.2157 13.6468 37.1719 13.046 38.1281C12.9467 38.2848 12.7743 38.3737 12.6019 38.3737ZM147.309 38.2326C147.137 38.2326 146.964 38.1438 146.865 37.987C146.264 37.0308 145.632 36.0798 144.995 35.155C144.833 34.9198 144.89 34.5906 145.125 34.4287C145.361 34.2667 145.69 34.3242 145.852 34.5593C146.499 35.4946 147.137 36.4613 147.743 37.4279C147.894 37.6735 147.821 37.9922 147.581 38.149C147.492 38.2012 147.398 38.2274 147.304 38.2274L147.309 38.2326ZM16.4786 32.7357C16.3689 32.7357 16.2591 32.6991 16.1651 32.6312C15.9352 32.4588 15.8882 32.1296 16.0606 31.8997C16.745 30.9905 17.466 30.0761 18.1923 29.193C18.3751 28.9684 18.7043 28.937 18.9289 29.1199C19.1536 29.3028 19.185 29.632 19.0021 29.8566C18.2863 30.7292 17.5758 31.628 16.9018 32.5267C16.7973 32.6626 16.6405 32.7357 16.4838 32.7357H16.4786ZM143.427 32.6103C143.271 32.6103 143.114 32.5371 143.009 32.4013C142.33 31.5026 141.62 30.6091 140.904 29.7365C140.721 29.5118 140.752 29.1826 140.972 28.9997C141.196 28.8168 141.526 28.8482 141.708 29.0676C142.435 29.9507 143.156 30.8546 143.84 31.7638C144.013 31.9937 143.971 32.3229 143.741 32.4953C143.647 32.5685 143.537 32.5999 143.427 32.5999V32.6103ZM20.8255 27.4531C20.7001 27.4531 20.5747 27.4113 20.4754 27.3172C20.2612 27.1239 20.2403 26.7947 20.4336 26.5805C21.1964 25.7288 21.9906 24.8823 22.7847 24.0671C22.9885 23.8634 23.3177 23.8581 23.5214 24.0567C23.7252 24.2605 23.7304 24.5897 23.5319 24.7934C22.7429 25.5981 21.9645 26.4341 21.2069 27.2754C21.1024 27.3904 20.9613 27.4478 20.815 27.4478L20.8255 27.4531ZM139.075 27.3433C138.934 27.3433 138.788 27.2859 138.689 27.1709C137.931 26.3296 137.147 25.4988 136.364 24.6942C136.16 24.4904 136.165 24.156 136.369 23.9574C136.573 23.7536 136.907 23.7589 137.106 23.9626C137.905 24.7778 138.694 25.619 139.462 26.4707C139.655 26.685 139.639 27.0141 139.425 27.2075C139.326 27.2963 139.201 27.3433 139.075 27.3433ZM25.6061 22.5623C25.465 22.5623 25.3292 22.5048 25.2247 22.3951C25.0261 22.1861 25.0366 21.8517 25.2456 21.6583C26.0763 20.8746 26.9384 20.1012 27.8056 19.3593C28.0251 19.1712 28.3542 19.1973 28.5423 19.4115C28.7304 19.631 28.7043 19.9602 28.4901 20.1483C27.6385 20.885 26.7868 21.6479 25.9666 22.4212C25.8673 22.5153 25.7367 22.5623 25.6113 22.5623H25.6061ZM134.289 22.463C134.159 22.463 134.033 22.416 133.934 22.3219C133.109 21.5486 132.257 20.7857 131.405 20.0542C131.186 19.8661 131.16 19.5369 131.348 19.3175C131.536 19.098 131.865 19.0719 132.085 19.26C132.947 20.002 133.809 20.7753 134.65 21.5591C134.859 21.7576 134.869 22.0868 134.676 22.2958C134.572 22.4055 134.436 22.463 134.295 22.463H134.289ZM30.7837 18.1C30.6322 18.1 30.4754 18.0321 30.371 17.9014C30.1933 17.6768 30.2299 17.3476 30.4598 17.1699C31.3532 16.4645 32.278 15.7643 33.2027 15.0955C33.4378 14.9283 33.7618 14.9806 33.9342 15.2157C34.1014 15.4508 34.0491 15.7748 33.814 15.9472C32.8997 16.6056 31.9906 17.2953 31.1076 17.9955C31.0136 18.0739 30.8986 18.1104 30.7837 18.1104V18.1ZM129.096 18.0059C128.981 18.0059 128.871 17.9694 128.772 17.8962C127.889 17.2013 126.975 16.5115 126.055 15.8532C125.82 15.686 125.768 15.3568 125.935 15.1216C126.102 14.8865 126.432 14.8343 126.667 15.0015C127.597 15.6703 128.521 16.3652 129.42 17.0706C129.645 17.2483 129.687 17.5775 129.509 17.8022C129.404 17.9328 129.253 18.0007 129.096 18.0007V18.0059ZM36.3218 14.0975C36.1494 14.0975 35.9875 14.0139 35.883 13.8624C35.7262 13.622 35.7889 13.2981 36.0293 13.1361C36.9854 12.5091 37.9624 11.8925 38.9394 11.3073C39.185 11.161 39.5089 11.2393 39.6552 11.4849C39.8015 11.7305 39.7231 12.0545 39.4775 12.2008C38.5162 12.7755 37.5496 13.3869 36.604 14.0087C36.5152 14.0662 36.4159 14.0975 36.3166 14.0975H36.3218ZM123.542 14.0087C123.443 14.0087 123.344 13.9826 123.255 13.9251C122.309 13.3033 121.338 12.6972 120.371 12.1224C120.125 11.9761 120.042 11.6521 120.188 11.4066C120.334 11.161 120.658 11.0774 120.904 11.2237C121.881 11.8089 122.863 12.4202 123.824 13.0525C124.065 13.2092 124.133 13.5332 123.976 13.7736C123.877 13.9251 123.71 14.0087 123.537 14.0087H123.542ZM42.1787 10.5914C41.9906 10.5914 41.813 10.4921 41.7189 10.3197C41.5831 10.0637 41.6771 9.75017 41.9279 9.60909C42.931 9.06567 43.9603 8.53793 44.9843 8.03632C45.2456 7.91091 45.5538 8.01542 45.6844 8.27667C45.8098 8.53793 45.7053 8.84622 45.4441 8.97685C44.4305 9.46801 43.4169 9.99053 42.4295 10.5287C42.3511 10.5705 42.2675 10.5914 42.1787 10.5914ZM117.665 10.5026C117.581 10.5026 117.497 10.4817 117.419 10.4399C116.421 9.9017 115.402 9.37918 114.389 8.88802C114.127 8.76261 114.018 8.4491 114.148 8.18785C114.274 7.92659 114.587 7.82208 114.848 7.94749C115.873 8.44388 116.907 8.97162 117.915 9.51504C118.171 9.65089 118.265 9.96963 118.13 10.2204C118.036 10.3981 117.858 10.4974 117.67 10.4974L117.665 10.5026ZM48.3124 7.5974C48.1087 7.5974 47.9206 7.47722 47.8318 7.28389C47.7168 7.01741 47.837 6.70912 48.1035 6.59417C49.1484 6.13958 50.2142 5.70066 51.28 5.2931C51.5465 5.1886 51.8495 5.32445 51.954 5.59093C52.0585 5.86264 51.9227 6.16048 51.6562 6.26498C50.6061 6.66732 49.5507 7.10101 48.5214 7.55037C48.4535 7.58173 48.3856 7.59218 48.3124 7.59218V7.5974ZM111.499 7.51902C111.432 7.51902 111.358 7.50335 111.29 7.47722C110.256 7.02786 109.19 6.59939 108.135 6.19705C107.863 6.09255 107.732 5.79472 107.832 5.52301C107.936 5.2513 108.239 5.12067 108.506 5.21995C109.577 5.62751 110.653 6.06643 111.703 6.52102C111.97 6.63597 112.09 6.94425 111.975 7.20551C111.891 7.40407 111.698 7.51902 111.494 7.51902H111.499ZM54.6813 5.1468C54.4619 5.1468 54.2581 5.01094 54.185 4.79148C54.0909 4.51977 54.2424 4.22194 54.5141 4.12789C55.5956 3.76212 56.7032 3.41726 57.8004 3.10375C58.0773 3.02537 58.3647 3.18213 58.4483 3.45906C58.5266 3.736 58.3699 4.02861 58.093 4.10699C57.0115 4.4205 55.9195 4.76013 54.8485 5.12067C54.791 5.14157 54.7388 5.1468 54.6813 5.1468ZM105.094 5.07364C105.042 5.07364 104.984 5.06319 104.927 5.04752C103.861 4.6922 102.769 4.35779 101.682 4.04428C101.405 3.96591 101.243 3.67852 101.322 3.39636C101.4 3.11943 101.688 2.95745 101.97 3.03583C103.072 3.34934 104.175 3.68897 105.256 4.04951C105.528 4.13834 105.679 4.43617 105.585 4.70788C105.512 4.92734 105.308 5.06842 105.089 5.06842L105.094 5.07364ZM61.2539 3.25528C61.0188 3.25528 60.8046 3.0933 60.7471 2.85294C60.6792 2.57079 60.8516 2.28863 61.1338 2.2207C62.2414 1.95421 63.3699 1.70341 64.4932 1.48395C64.7753 1.42647 65.0522 1.61458 65.1045 1.89674C65.162 2.1789 64.9739 2.45583 64.6917 2.50808C63.5841 2.72754 62.466 2.9679 61.3741 3.23438C61.3323 3.24483 61.2905 3.25006 61.2487 3.25006L61.2539 3.25528ZM98.5214 3.19781C98.4796 3.19781 98.4378 3.19781 98.4013 3.18213C97.3041 2.92087 96.186 2.68051 95.0836 2.46628C94.8015 2.4088 94.6134 2.1371 94.6709 1.85494C94.7231 1.57278 95 1.38467 95.2821 1.44215C96.4054 1.6616 97.534 1.90196 98.6468 2.16845C98.9289 2.23637 99.1014 2.51853 99.0334 2.79547C98.976 3.03583 98.7618 3.19781 98.5266 3.19781H98.5214ZM67.9624 1.93331C67.7064 1.93331 67.4869 1.75043 67.4451 1.48917C67.4033 1.20179 67.5967 0.935306 67.884 0.893505C69.0125 0.721074 70.162 0.574769 71.2957 0.449365C71.5883 0.418014 71.8391 0.627021 71.8704 0.914405C71.9018 1.20179 71.6928 1.45782 71.4054 1.48917C70.2874 1.60935 69.1536 1.75566 68.0355 1.92809C68.0094 1.92809 67.9833 1.93331 67.9572 1.93331H67.9624ZM91.8077 1.90196C91.8077 1.90196 91.7555 1.90196 91.7294 1.89674C90.6113 1.72953 89.4775 1.58845 88.3595 1.46827C88.0721 1.43692 87.8631 1.18089 87.8945 0.893505C87.9258 0.60612 88.187 0.397113 88.4692 0.428464C89.6029 0.548643 90.7523 0.694948 91.8861 0.862153C92.1735 0.903955 92.3668 1.17044 92.325 1.45782C92.2884 1.71908 92.0637 1.90196 91.8077 1.90196ZM74.7544 1.20179C74.4828 1.20179 74.2529 0.987558 74.232 0.710624C74.2111 0.423239 74.4305 0.172431 74.7179 0.156755C75.8568 0.0836028 77.0115 0.031351 78.1557 0.00522517C78.4431 -0.0104503 78.6834 0.224682 78.6886 0.517292C78.6938 0.804677 78.4692 1.04503 78.1766 1.05026C77.0481 1.07639 75.9039 1.12341 74.7806 1.19656C74.7701 1.19656 74.7597 1.19656 74.744 1.19656L74.7544 1.20179ZM85.0105 1.18611C85.0105 1.18611 84.9895 1.18611 84.9791 1.18611C83.8558 1.11819 82.7168 1.07116 81.5831 1.04503C81.2957 1.03981 81.0658 0.799451 81.0711 0.512067C81.0763 0.224682 81.3114 0 81.5935 0H81.604C82.7482 0.0209007 83.9028 0.0679272 85.0418 0.14108C85.3292 0.156755 85.5486 0.407563 85.5329 0.694948C85.5173 0.971882 85.2874 1.18611 85.0105 1.18611Z" fill="#F0C4BF"/>
<path d="M80 3.08285C79.7126 3.08285 79.4775 2.84772 79.4775 2.56033V0.846477C79.4775 0.559092 79.7126 0.323959 80 0.323959C80.2874 0.323959 80.5225 0.559092 80.5225 0.846477V2.56556C80.5225 2.85294 80.2874 3.08808 80 3.08808V3.08285Z" fill="#F0C4BF"/>
<path d="M80 154.832C79.7126 154.832 79.4775 154.597 79.4775 154.31V150.861C79.4775 150.574 79.7126 150.339 80 150.339C80.2874 150.339 80.5225 150.574 80.5225 150.861V154.31C80.5225 154.597 80.2874 154.832 80 154.832ZM80 147.935C79.7126 147.935 79.4775 147.7 79.4775 147.413V143.964C79.4775 143.677 79.7126 143.441 80 143.441C80.2874 143.441 80.5225 143.677 80.5225 143.964V147.413C80.5225 147.7 80.2874 147.935 80 147.935ZM80 141.038C79.7126 141.038 79.4775 140.803 79.4775 140.515V137.067C79.4775 136.779 79.7126 136.544 80 136.544C80.2874 136.544 80.5225 136.779 80.5225 137.067V140.515C80.5225 140.803 80.2874 141.038 80 141.038ZM80 134.141C79.7126 134.141 79.4775 133.906 79.4775 133.618V130.17C79.4775 129.882 79.7126 129.647 80 129.647C80.2874 129.647 80.5225 129.882 80.5225 130.17V133.618C80.5225 133.906 80.2874 134.141 80 134.141ZM80 127.243C79.7126 127.243 79.4775 127.008 79.4775 126.721V123.272C79.4775 122.985 79.7126 122.75 80 122.75C80.2874 122.75 80.5225 122.985 80.5225 123.272V126.721C80.5225 127.008 80.2874 127.243 80 127.243ZM80 120.346C79.7126 120.346 79.4775 120.111 79.4775 119.824V116.375C79.4775 116.088 79.7126 115.853 80 115.853C80.2874 115.853 80.5225 116.088 80.5225 116.375V119.824C80.5225 120.111 80.2874 120.346 80 120.346ZM80 113.449C79.7126 113.449 79.4775 113.214 79.4775 112.926V109.478C79.4775 109.19 79.7126 108.955 80 108.955C80.2874 108.955 80.5225 109.19 80.5225 109.478V112.926C80.5225 113.214 80.2874 113.449 80 113.449ZM80 106.547C79.7126 106.547 79.4775 106.311 79.4775 106.024V102.575C79.4775 102.288 79.7126 102.053 80 102.053C80.2874 102.053 80.5225 102.288 80.5225 102.575V106.024C80.5225 106.311 80.2874 106.547 80 106.547ZM80 99.6493C79.7126 99.6493 79.4775 99.4141 79.4775 99.1268V95.6781C79.4775 95.3908 79.7126 95.1556 80 95.1556C80.2874 95.1556 80.5225 95.3908 80.5225 95.6781V99.1268C80.5225 99.4141 80.2874 99.6493 80 99.6493ZM80 92.752C79.7126 92.752 79.4775 92.5169 79.4775 92.2295V88.7809C79.4775 88.4935 79.7126 88.2584 80 88.2584C80.2874 88.2584 80.5225 88.4935 80.5225 88.7809V92.2295C80.5225 92.5169 80.2874 92.752 80 92.752ZM80 85.8548C79.7126 85.8548 79.4775 85.6197 79.4775 85.3323V81.8837C79.4775 81.5963 79.7126 81.3612 80 81.3612C80.2874 81.3612 80.5225 81.5963 80.5225 81.8837V85.3323C80.5225 85.6197 80.2874 85.8548 80 85.8548ZM80 78.9576C79.7126 78.9576 79.4775 78.7225 79.4775 78.4351V74.9865C79.4775 74.6991 79.7126 74.4639 80 74.4639C80.2874 74.4639 80.5225 74.6991 80.5225 74.9865V78.4351C80.5225 78.7225 80.2874 78.9576 80 78.9576ZM80 72.0604C79.7126 72.0604 79.4775 71.8252 79.4775 71.5378V68.0892C79.4775 67.8018 79.7126 67.5667 80 67.5667C80.2874 67.5667 80.5225 67.8018 80.5225 68.0892V71.5378C80.5225 71.8252 80.2874 72.0604 80 72.0604ZM80 65.1631C79.7126 65.1631 79.4775 64.928 79.4775 64.6406V61.192C79.4775 60.9046 79.7126 60.6695 80 60.6695C80.2874 60.6695 80.5225 60.9046 80.5225 61.192V64.6406C80.5225 64.928 80.2874 65.1631 80 65.1631ZM80 58.2659C79.7126 58.2659 79.4775 58.0308 79.4775 57.7434V54.2948C79.4775 54.0074 79.7126 53.7723 80 53.7723C80.2874 53.7723 80.5225 54.0074 80.5225 54.2948V57.7434C80.5225 58.0308 80.2874 58.2659 80 58.2659ZM80 51.3687C79.7126 51.3687 79.4775 51.1335 79.4775 50.8462V47.3975C79.4775 47.1102 79.7126 46.875 80 46.875C80.2874 46.875 80.5225 47.1102 80.5225 47.3975V50.8462C80.5225 51.1335 80.2874 51.3687 80 51.3687ZM80 44.4714C79.7126 44.4714 79.4775 44.2363 79.4775 43.9489V40.5003C79.4775 40.2129 79.7126 39.9778 80 39.9778C80.2874 39.9778 80.5225 40.2129 80.5225 40.5003V43.9489C80.5225 44.2363 80.2874 44.4714 80 44.4714ZM80 37.5742C79.7126 37.5742 79.4775 37.3391 79.4775 37.0517V33.6031C79.4775 33.3157 79.7126 33.0806 80 33.0806C80.2874 33.0806 80.5225 33.3157 80.5225 33.6031V37.0517C80.5225 37.3391 80.2874 37.5742 80 37.5742ZM80 30.677C79.7126 30.677 79.4775 30.4419 79.4775 30.1545V26.7059C79.4775 26.4185 79.7126 26.1833 80 26.1833C80.2874 26.1833 80.5225 26.4185 80.5225 26.7059V30.1545C80.5225 30.4419 80.2874 30.677 80 30.677ZM80 23.7745C79.7126 23.7745 79.4775 23.5394 79.4775 23.252V19.8034C79.4775 19.516 79.7126 19.2809 80 19.2809C80.2874 19.2809 80.5225 19.516 80.5225 19.8034V23.252C80.5225 23.5394 80.2874 23.7745 80 23.7745ZM80 16.8773C79.7126 16.8773 79.4775 16.6422 79.4775 16.3548V12.9062C79.4775 12.6188 79.7126 12.3837 80 12.3837C80.2874 12.3837 80.5225 12.6188 80.5225 12.9062V16.3548C80.5225 16.6422 80.2874 16.8773 80 16.8773ZM80 9.98008C79.7126 9.98008 79.4775 9.74495 79.4775 9.45757V6.00895C79.4775 5.72157 79.7126 5.48643 80 5.48643C80.2874 5.48643 80.5225 5.72157 80.5225 6.00895V9.45757C80.5225 9.74495 80.2874 9.98008 80 9.98008Z" fill="#F0C4BF"/>
<path d="M80 160C79.7126 160 79.4775 159.765 79.4775 159.477V157.758C79.4775 157.471 79.7126 157.236 80 157.236C80.2874 157.236 80.5225 157.471 80.5225 157.758V159.477C80.5225 159.765 80.2874 160 80 160Z" fill="#F0C4BF"/>
<path d="M81.604 1.98034C81.5361 1.98034 81.4681 1.96989 81.4054 1.93853C80.418 1.52575 79.8485 1.34286 79.8433 1.34286C79.5664 1.25404 79.4148 0.961427 79.5037 0.684493C79.5925 0.407559 79.8851 0.256029 80.162 0.344857C80.1881 0.350082 80.7733 0.543413 81.8077 0.971878C82.0742 1.08161 82.1996 1.38989 82.0899 1.65638C82.0063 1.85493 81.813 1.98034 81.6092 1.98034H81.604Z" fill="#F0C4BF"/>
<path d="M84.7701 157.879C84.582 157.879 84.3992 157.774 84.3051 157.596C84.1745 157.34 84.2738 157.027 84.5298 156.891C85.5172 156.379 86.5204 155.82 87.5131 155.224C87.7586 155.078 88.0825 155.156 88.2288 155.407C88.3751 155.653 88.2968 155.977 88.046 156.123C87.0324 156.729 86.0136 157.299 85.0104 157.816C84.9321 157.858 84.8537 157.873 84.7701 157.873V157.879ZM90.6844 154.346C90.5172 154.346 90.35 154.268 90.2508 154.116C90.0888 153.876 90.1515 153.552 90.3918 153.39C91.3271 152.758 92.2623 152.089 93.1714 151.399C93.4012 151.227 93.7304 151.269 93.9028 151.504C94.0752 151.734 94.0334 152.063 93.8035 152.235C92.8788 152.936 91.9279 153.615 90.9822 154.258C90.8934 154.32 90.7889 154.346 90.6897 154.346H90.6844ZM96.1808 150.192C96.0293 150.192 95.883 150.13 95.7785 150.004C95.5904 149.785 95.6217 149.456 95.8412 149.267C96.7085 148.536 97.5653 147.773 98.4012 147C98.6102 146.801 98.9446 146.812 99.1379 147.026C99.3365 147.235 99.3208 147.569 99.1118 147.763C98.2654 148.552 97.3929 149.325 96.5151 150.062C96.4159 150.145 96.2957 150.187 96.1808 150.187V150.192ZM101.217 145.5C101.087 145.5 100.956 145.453 100.852 145.354C100.643 145.15 100.637 144.821 100.841 144.617C101.63 143.807 102.409 142.961 103.161 142.109C103.349 141.895 103.683 141.869 103.898 142.062C104.112 142.25 104.138 142.584 103.945 142.799C103.182 143.666 102.388 144.523 101.588 145.349C101.484 145.453 101.348 145.505 101.212 145.505L101.217 145.5ZM105.763 140.327C105.648 140.327 105.533 140.291 105.439 140.212C105.214 140.029 105.178 139.705 105.355 139.476C106.061 138.592 106.755 137.673 107.424 136.753C107.591 136.518 107.921 136.466 108.156 136.638C108.391 136.805 108.443 137.135 108.271 137.37C107.597 138.305 106.891 139.235 106.176 140.134C106.071 140.265 105.92 140.332 105.768 140.332L105.763 140.327ZM109.796 134.747C109.697 134.747 109.598 134.721 109.509 134.663C109.269 134.506 109.201 134.182 109.357 133.942C109.974 132.996 110.58 132.019 111.16 131.037C111.306 130.791 111.625 130.708 111.876 130.854C112.126 131 112.205 131.319 112.059 131.57C111.468 132.568 110.857 133.555 110.23 134.512C110.131 134.663 109.963 134.747 109.791 134.747H109.796ZM113.292 128.821C113.208 128.821 113.124 128.8 113.046 128.759C112.79 128.623 112.696 128.304 112.832 128.053C113.365 127.055 113.882 126.026 114.373 125.002C114.498 124.741 114.812 124.631 115.068 124.756C115.329 124.882 115.439 125.195 115.313 125.451C114.817 126.491 114.289 127.531 113.751 128.544C113.657 128.722 113.474 128.821 113.292 128.821ZM116.264 122.614C116.196 122.614 116.129 122.598 116.061 122.572C115.794 122.457 115.674 122.154 115.784 121.888C116.228 120.853 116.656 119.782 117.064 118.716C117.168 118.444 117.466 118.308 117.738 118.413C118.009 118.517 118.145 118.815 118.041 119.087C117.628 120.169 117.194 121.25 116.745 122.295C116.661 122.494 116.468 122.614 116.264 122.614ZM118.71 116.182C118.652 116.182 118.6 116.171 118.542 116.156C118.271 116.062 118.119 115.769 118.213 115.492C118.574 114.426 118.918 113.329 119.242 112.226C119.326 111.949 119.613 111.787 119.89 111.871C120.167 111.955 120.324 112.242 120.246 112.519C119.916 113.632 119.572 114.74 119.206 115.821C119.133 116.041 118.929 116.176 118.71 116.176V116.182ZM120.653 109.582C120.611 109.582 120.564 109.582 120.522 109.567C120.24 109.493 120.073 109.211 120.146 108.929C120.428 107.832 120.695 106.714 120.935 105.601C120.998 105.319 121.275 105.141 121.557 105.204C121.839 105.266 122.017 105.543 121.954 105.825C121.708 106.949 121.437 108.083 121.155 109.19C121.092 109.426 120.883 109.582 120.648 109.582H120.653ZM122.132 102.858C122.1 102.858 122.069 102.858 122.038 102.847C121.755 102.795 121.567 102.523 121.62 102.236C121.823 101.133 122.017 99.9993 122.189 98.8602C122.231 98.5729 122.497 98.3743 122.785 98.4213C123.072 98.4631 123.265 98.7296 123.224 99.017C123.051 100.167 122.858 101.316 122.649 102.429C122.602 102.68 122.382 102.858 122.137 102.858H122.132ZM123.166 96.0543C123.166 96.0543 123.124 96.0543 123.103 96.0543C122.816 96.0178 122.612 95.7617 122.649 95.4743C122.785 94.3457 122.91 93.1962 123.009 92.0675C123.036 91.7801 123.286 91.5659 123.579 91.5973C123.866 91.6234 124.075 91.8794 124.049 92.1668C123.945 93.3059 123.819 94.4607 123.683 95.605C123.652 95.8715 123.427 96.0648 123.166 96.0648V96.0543ZM123.798 89.2041C123.798 89.2041 123.777 89.2041 123.762 89.2041C123.474 89.1832 123.255 88.9376 123.276 88.6503C123.349 87.5164 123.406 86.3669 123.448 85.2278C123.459 84.9404 123.683 84.7105 123.992 84.7262C124.279 84.7366 124.504 84.9822 124.493 85.2696C124.451 86.4191 124.389 87.5791 124.316 88.7234C124.3 89.0004 124.07 89.2146 123.793 89.2146L123.798 89.2041ZM124.06 82.3226H124.054C123.767 82.3226 123.532 82.0822 123.537 81.7948C123.542 81.1992 123.548 80.5983 123.548 79.9921C123.548 79.4435 123.548 78.9053 123.537 78.3619C123.537 78.0745 123.767 77.8394 124.054 77.8342C124.357 77.808 124.582 78.0641 124.582 78.3514C124.587 78.8949 124.592 79.4383 124.592 79.9921C124.592 80.6035 124.592 81.2044 124.582 81.8053C124.582 82.0927 124.347 82.3226 124.06 82.3226ZM123.976 75.441C123.694 75.441 123.464 75.2216 123.453 74.9394C123.412 73.8003 123.354 72.6456 123.281 71.5169C123.265 71.2295 123.48 70.9787 123.772 70.9631C124.054 70.9422 124.31 71.1616 124.326 71.4542C124.399 72.5933 124.457 73.7585 124.498 74.9028C124.509 75.1902 124.284 75.4358 123.997 75.4463C123.992 75.4463 123.986 75.4463 123.976 75.4463V75.441ZM123.542 68.5699C123.276 68.5699 123.046 68.3661 123.02 68.0944C122.915 66.9606 122.795 65.8163 122.659 64.6876C122.623 64.4002 122.832 64.139 123.114 64.1076C123.401 64.0763 123.662 64.2801 123.694 64.5622C123.83 65.7013 123.95 66.8561 124.054 68.0004C124.08 68.2878 123.866 68.5438 123.579 68.5699C123.563 68.5699 123.548 68.5699 123.532 68.5699H123.542ZM122.722 61.7354C122.466 61.7354 122.247 61.5473 122.205 61.2913C122.038 60.1679 121.844 59.0288 121.641 57.9106C121.588 57.6284 121.776 57.3567 122.059 57.3045C122.346 57.2522 122.618 57.4403 122.665 57.7225C122.874 58.8511 123.062 59.9954 123.234 61.1345C123.276 61.4219 123.083 61.6884 122.795 61.7302C122.769 61.7302 122.743 61.7354 122.717 61.7354H122.722ZM121.484 54.9688C121.243 54.9688 121.029 54.8016 120.972 54.556C120.726 53.4326 120.46 52.3144 120.183 51.2224C120.11 50.9402 120.282 50.658 120.559 50.5849C120.841 50.517 121.123 50.6842 121.196 50.9611C121.479 52.0584 121.745 53.1922 121.991 54.3261C122.053 54.6083 121.876 54.8852 121.594 54.9479C121.557 54.9584 121.52 54.9584 121.484 54.9584V54.9688ZM119.781 48.2963C119.556 48.2963 119.347 48.15 119.279 47.92C118.96 46.828 118.615 45.7307 118.255 44.6543C118.161 44.3826 118.312 44.0848 118.584 43.9907C118.856 43.9019 119.154 44.0482 119.248 44.3199C119.613 45.4067 119.963 46.5197 120.287 47.6222C120.371 47.8991 120.209 48.1918 119.932 48.2701C119.885 48.2858 119.833 48.291 119.786 48.291L119.781 48.2963ZM117.591 41.7752C117.382 41.7752 117.184 41.6446 117.106 41.4356C116.698 40.3697 116.27 39.2985 115.825 38.2639C115.711 37.9974 115.836 37.6892 116.102 37.5794C116.364 37.4645 116.677 37.5899 116.787 37.8564C117.236 38.9066 117.67 39.9882 118.083 41.0698C118.187 41.3416 118.051 41.6394 117.78 41.7439C117.717 41.7648 117.654 41.7805 117.597 41.7805L117.591 41.7752ZM114.89 35.4476C114.697 35.4476 114.509 35.3378 114.42 35.1497C113.929 34.1204 113.412 33.091 112.879 32.0982C112.743 31.8422 112.837 31.5287 113.093 31.3928C113.349 31.257 113.662 31.3563 113.798 31.6071C114.336 32.6155 114.859 33.6553 115.36 34.7004C115.486 34.9616 115.376 35.2751 115.115 35.3953C115.042 35.4319 114.963 35.4476 114.89 35.4476ZM111.656 29.3707C111.479 29.3707 111.306 29.2766 111.207 29.1147C110.622 28.1323 110.016 27.1552 109.399 26.2147C109.242 25.9743 109.31 25.6504 109.551 25.4936C109.791 25.3369 110.115 25.4048 110.272 25.6451C110.899 26.5961 111.515 27.5889 112.106 28.5869C112.252 28.8377 112.168 29.1565 111.923 29.3028C111.839 29.3498 111.745 29.3759 111.656 29.3759V29.3707ZM107.884 23.6178C107.722 23.6178 107.56 23.5446 107.461 23.4035C106.792 22.4787 106.092 21.5643 105.392 20.6865C105.209 20.4618 105.246 20.1326 105.475 19.9497C105.7 19.7668 106.029 19.8086 106.212 20.0281C106.928 20.9216 107.633 21.8464 108.312 22.787C108.48 23.0221 108.427 23.3461 108.197 23.5185C108.103 23.5864 107.999 23.6178 107.889 23.6178H107.884ZM103.579 18.2463C103.433 18.2463 103.292 18.1888 103.187 18.0686C102.435 17.2169 101.651 16.3757 100.862 15.5658C100.658 15.362 100.664 15.0276 100.873 14.829C101.076 14.6252 101.411 14.6305 101.609 14.8395C102.414 15.6598 103.208 16.5168 103.971 17.3789C104.164 17.5931 104.143 17.9276 103.924 18.1157C103.824 18.2045 103.699 18.2463 103.579 18.2463ZM98.7617 13.319C98.6364 13.319 98.5057 13.2719 98.4065 13.1779C97.5705 12.4046 96.7085 11.6469 95.8412 10.9206C95.6217 10.7377 95.5904 10.4085 95.7732 10.1839C95.9561 9.9644 96.2853 9.93305 96.5099 10.1159C97.3929 10.8527 98.2706 11.6208 99.117 12.4046C99.3312 12.6031 99.3417 12.9323 99.1484 13.1413C99.0439 13.251 98.9028 13.3085 98.767 13.3085L98.7617 13.319ZM93.4744 8.90891C93.3647 8.90891 93.255 8.87234 93.1609 8.80441C92.2466 8.11991 91.3114 7.45631 90.3709 6.82929C90.1306 6.66731 90.0679 6.34335 90.2247 6.10299C90.3866 5.86264 90.7105 5.79993 90.9509 5.95669C91.9018 6.59416 92.8579 7.26821 93.7879 7.96316C94.0178 8.13559 94.0648 8.46477 93.8924 8.69468C93.7879 8.83053 93.6311 8.90369 93.4744 8.90369V8.90891ZM87.7429 5.08409C87.6541 5.08409 87.5601 5.06319 87.4765 5.01093C86.4838 4.42571 85.4754 3.87185 84.4828 3.365C84.2267 3.23438 84.1222 2.92086 84.2529 2.66483C84.3835 2.4088 84.697 2.30429 84.953 2.43492C85.9613 2.94699 86.9906 3.51131 88.0042 4.1122C88.255 4.25851 88.3333 4.57724 88.187 4.82805C88.0878 4.99526 87.9154 5.08409 87.7377 5.08409H87.7429Z" fill="#F0C4BF"/>
<path d="M80 160C79.7805 160 79.5768 159.859 79.5036 159.639C79.4148 159.368 79.5611 159.07 79.838 158.981C79.8432 158.981 80.4127 158.793 81.395 158.375C81.6562 158.265 81.9645 158.385 82.0794 158.652C82.1891 158.918 82.069 159.227 81.8025 159.336C80.7732 159.775 80.1881 159.969 80.1619 159.974C80.1097 159.99 80.0522 160 80 160Z" fill="#F0C4BF"/>
<path d="M78.4013 1.98034C78.1975 1.98034 78.0042 1.86016 77.9206 1.66161C77.8109 1.39512 77.9363 1.08684 78.2027 0.97711C79.232 0.543421 79.8224 0.355315 79.8433 0.344865C80.1202 0.256037 80.4128 0.407567 80.5016 0.679276C80.5904 0.95621 80.4389 1.24882 80.1672 1.33765C80.162 1.33765 79.5925 1.52575 78.605 1.93854C78.5371 1.96467 78.4692 1.98034 78.4013 1.98034Z" fill="#F0C4BF"/>
<path d="M75.5277 157.879C75.4441 157.879 75.3657 157.858 75.2874 157.821C74.2842 157.304 73.2654 156.734 72.2518 156.128C72.0063 155.982 71.9227 155.658 72.069 155.412C72.2153 155.167 72.534 155.083 72.7847 155.229C73.7774 155.825 74.7806 156.384 75.7628 156.891C76.0188 157.022 76.1181 157.34 75.9875 157.596C75.8934 157.774 75.7106 157.879 75.5225 157.879H75.5277ZM69.6186 154.352C69.5193 154.352 69.4148 154.325 69.326 154.263C68.3751 153.62 67.4242 152.941 66.5047 152.241C66.2748 152.068 66.2278 151.739 66.4054 151.509C66.5778 151.279 66.907 151.232 67.1369 151.405C68.0407 152.089 68.976 152.758 69.9112 153.39C70.1515 153.552 70.2142 153.876 70.0522 154.116C69.953 154.268 69.7858 154.346 69.6186 154.346V154.352ZM64.1275 150.203C64.0073 150.203 63.8924 150.161 63.7931 150.083C62.9154 149.346 62.0428 148.573 61.1964 147.784C60.9875 147.585 60.9718 147.256 61.1703 147.047C61.3689 146.838 61.698 146.822 61.907 147.021C62.7377 147.794 63.5998 148.557 64.4619 149.283C64.6813 149.471 64.7126 149.8 64.5246 150.02C64.4201 150.145 64.2738 150.208 64.1223 150.208L64.1275 150.203ZM59.0961 145.516C58.9603 145.516 58.8244 145.464 58.72 145.359C57.9206 144.534 57.1264 143.677 56.3689 142.814C56.1755 142.595 56.1964 142.266 56.4159 142.078C56.6301 141.884 56.9645 141.91 57.1526 142.125C57.8997 142.976 58.6834 143.818 59.4723 144.633C59.6708 144.837 59.6708 145.171 59.4619 145.37C59.3626 145.469 59.2267 145.516 59.0961 145.516ZM54.5507 140.353C54.3992 140.353 54.2476 140.285 54.1432 140.155C53.4274 139.261 52.722 138.331 52.0481 137.396C51.8809 137.161 51.9331 136.837 52.163 136.664C52.3981 136.497 52.722 136.549 52.8945 136.779C53.558 137.699 54.2529 138.613 54.9582 139.496C55.1358 139.721 55.0993 140.05 54.8746 140.233C54.7806 140.312 54.6656 140.348 54.5507 140.348V140.353ZM50.5225 134.778C50.35 134.778 50.1829 134.695 50.0836 134.543C49.4566 133.587 48.8453 132.599 48.255 131.601C48.1087 131.35 48.1923 131.032 48.4378 130.885C48.6886 130.739 49.0073 130.823 49.1536 131.068C49.7335 132.051 50.3396 133.028 50.9561 133.968C51.1128 134.209 51.0449 134.533 50.8046 134.689C50.7158 134.747 50.6165 134.773 50.5172 134.773L50.5225 134.778ZM47.0219 128.863C46.8339 128.863 46.6562 128.764 46.5622 128.586C46.024 127.573 45.4963 126.533 45 125.498C44.8746 125.237 44.9843 124.923 45.2456 124.803C45.5068 124.678 45.815 124.788 45.9404 125.049C46.4316 126.073 46.9488 127.097 47.4817 128.1C47.6175 128.356 47.5183 128.67 47.2675 128.806C47.1891 128.848 47.1055 128.868 47.0219 128.868V128.863ZM44.0543 122.661C43.8506 122.661 43.6573 122.541 43.5737 122.342C43.1243 121.292 42.6855 120.21 42.2779 119.134C42.1735 118.862 42.3093 118.564 42.581 118.46C42.8474 118.355 43.1505 118.491 43.255 118.763C43.6625 119.829 44.0909 120.895 44.535 121.929C44.6499 122.196 44.5246 122.504 44.2581 122.614C44.1902 122.64 44.1223 122.656 44.0543 122.656V122.661ZM41.604 116.234C41.3845 116.234 41.1808 116.098 41.1076 115.879C40.7419 114.797 40.3918 113.684 40.0679 112.582C39.9843 112.305 40.1463 112.012 40.4232 111.934C40.7001 111.85 40.9875 112.007 41.0711 112.289C41.395 113.381 41.7398 114.478 42.1003 115.549C42.1944 115.821 42.0428 116.119 41.7712 116.213C41.7137 116.234 41.6614 116.239 41.604 116.239V116.234ZM39.6552 109.645C39.4201 109.645 39.2111 109.488 39.1484 109.253C38.8662 108.151 38.5946 107.017 38.349 105.888C38.2863 105.606 38.4639 105.329 38.7461 105.266C39.0282 105.209 39.3051 105.381 39.3678 105.663C39.6134 106.782 39.8798 107.9 40.1567 108.992C40.2299 109.269 40.0575 109.556 39.7806 109.629C39.7388 109.64 39.6917 109.645 39.6499 109.645H39.6552ZM38.1818 102.931C37.9363 102.931 37.7168 102.753 37.6698 102.502C37.4608 101.384 37.2675 100.234 37.0951 99.0954C37.0533 98.8132 37.2466 98.5415 37.534 98.4997C37.8213 98.4527 38.0878 98.6513 38.1296 98.9387C38.302 100.067 38.4953 101.206 38.6991 102.314C38.7513 102.596 38.5632 102.873 38.2811 102.925C38.2497 102.931 38.2184 102.936 38.187 102.936L38.1818 102.931ZM37.1369 96.1327C36.8756 96.1327 36.651 95.9394 36.6196 95.6729C36.4838 94.5391 36.3584 93.3843 36.2539 92.24C36.2278 91.9526 36.4368 91.6966 36.7241 91.6704C37.0115 91.6443 37.2675 91.8533 37.2936 92.1407C37.3981 93.2746 37.5235 94.4189 37.6593 95.5423C37.6959 95.8297 37.4922 96.0909 37.2048 96.1223C37.1839 96.1223 37.163 96.1223 37.1421 96.1223L37.1369 96.1327ZM36.5047 89.2878C36.233 89.2878 36.0031 89.0735 35.9822 88.7966C35.9091 87.6627 35.8516 86.5027 35.8046 85.348C35.7941 85.0606 36.0188 84.815 36.3062 84.8046C36.604 84.7889 36.8391 85.0188 36.8495 85.3062C36.8913 86.4505 36.954 87.6 37.0272 88.7287C37.0481 89.016 36.8286 89.2669 36.5413 89.2825C36.5308 89.2825 36.5204 89.2825 36.5047 89.2825V89.2878ZM36.2382 82.4166C35.9509 82.4166 35.721 82.1867 35.7158 81.8994C35.7053 81.2671 35.7053 80.6349 35.7053 79.9922C35.7053 79.4749 35.7053 78.9576 35.7158 78.4455C35.7158 78.1581 35.9509 77.9282 36.2382 77.9282H36.2435C36.5308 77.9282 36.7659 78.1686 36.7607 78.456C36.7607 78.9628 36.7503 79.4749 36.7503 79.9869C36.7503 80.6244 36.7503 81.2567 36.7607 81.8785C36.7607 82.1658 36.536 82.4062 36.2435 82.4062H36.2382V82.4166ZM36.3114 75.5351C36.3114 75.5351 36.3009 75.5351 36.2905 75.5351C36.0031 75.5247 35.7785 75.2843 35.7889 74.9969C35.8307 73.8474 35.8882 72.6874 35.9561 71.5483C35.9718 71.2609 36.2278 71.0415 36.5099 71.0571C36.7973 71.0728 37.0167 71.3236 37.001 71.611C36.9331 72.7396 36.8756 73.8944 36.8339 75.0335C36.8234 75.3156 36.5935 75.5351 36.3114 75.5351ZM36.7398 68.6744C36.7398 68.6744 36.7085 68.6744 36.6928 68.6744C36.4054 68.6483 36.1912 68.3975 36.2173 68.1101C36.3218 66.9658 36.4368 65.8058 36.5726 64.6772C36.604 64.3898 36.8704 64.186 37.1526 64.2174C37.4399 64.2487 37.6437 64.51 37.6123 64.7974C37.4817 65.9208 37.3615 67.0651 37.2623 68.2042C37.2361 68.4759 37.0115 68.6797 36.7398 68.6797V68.6744ZM37.5496 61.8451C37.5496 61.8451 37.4974 61.8451 37.4713 61.8399C37.1839 61.7981 36.9906 61.5316 37.0324 61.2443C37.2048 60.0999 37.3929 58.9556 37.5967 57.8374C37.6489 57.5553 37.9206 57.3619 38.2027 57.4142C38.4848 57.4665 38.6729 57.7382 38.6259 58.0203C38.4274 59.1281 38.2393 60.2619 38.0721 61.3958C38.0355 61.657 37.8109 61.8399 37.5549 61.8399L37.5496 61.8451ZM38.7722 55.0786C38.7356 55.0786 38.6991 55.0785 38.6625 55.0681C38.3804 55.0054 38.2027 54.7285 38.2602 54.4463C38.5005 53.3177 38.767 52.189 39.0439 51.0813C39.1118 50.7991 39.3992 50.6319 39.6761 50.6999C39.9582 50.7678 40.1254 51.0552 40.0575 51.3321C39.7806 52.4294 39.5193 53.5476 39.279 54.6605C39.2267 54.9061 39.0073 55.0733 38.767 55.0733L38.7722 55.0786ZM40.4493 48.4112C40.4023 48.4112 40.35 48.406 40.303 48.3903C40.0261 48.312 39.8642 48.0193 39.9477 47.7424C40.2717 46.6347 40.6165 45.5217 40.9718 44.4401C41.0606 44.1684 41.3584 44.0169 41.6301 44.1109C41.9018 44.1997 42.0533 44.4976 41.9592 44.7693C41.604 45.8404 41.2644 46.9377 40.9457 48.035C40.8777 48.2649 40.6688 48.4112 40.4441 48.4112H40.4493ZM42.6175 41.8902C42.5549 41.8902 42.4922 41.8798 42.4347 41.8589C42.163 41.7596 42.0272 41.4565 42.1264 41.1848C42.534 40.1084 42.9624 39.0268 43.4065 37.9713C43.5162 37.7048 43.8244 37.5794 44.0909 37.6944C44.3574 37.8041 44.4828 38.1124 44.3678 38.3789C43.9289 39.4187 43.5005 40.4899 43.1034 41.5506C43.0251 41.7596 42.8265 41.8902 42.6123 41.8902H42.6175ZM45.2926 35.5573C45.2194 35.5573 45.1411 35.5416 45.0679 35.5051C44.8067 35.3796 44.697 35.0714 44.8171 34.8101C45.3135 33.7651 45.8307 32.7253 46.3636 31.7116C46.4995 31.4555 46.813 31.3615 47.069 31.4921C47.325 31.628 47.4242 31.9415 47.2884 32.1975C46.7659 33.1955 46.2487 34.2197 45.7628 35.2542C45.674 35.4424 45.4859 35.5521 45.2926 35.5521V35.5573ZM48.4953 29.4752C48.4065 29.4752 48.3124 29.4543 48.2341 29.4021C47.9833 29.2557 47.8997 28.937 48.046 28.6862C48.6311 27.6882 49.2424 26.7006 49.8642 25.7392C50.0209 25.4988 50.3448 25.4257 50.5852 25.5877C50.8255 25.7444 50.8934 26.0684 50.7367 26.3087C50.1254 27.2545 49.5193 28.2316 48.9446 29.2139C48.8453 29.3812 48.6729 29.47 48.4953 29.47V29.4752ZM52.2414 23.7066C52.1369 23.7066 52.0272 23.6753 51.9383 23.6073C51.7032 23.4401 51.651 23.1109 51.8182 22.8758C52.4922 21.9405 53.1923 21.0104 53.9028 20.1117C54.0805 19.887 54.4096 19.8504 54.6395 20.0281C54.8642 20.2057 54.9007 20.5349 54.7231 20.7648C54.0178 21.6531 53.3281 22.5675 52.6646 23.4924C52.5601 23.6335 52.4033 23.7118 52.2414 23.7118V23.7066ZM56.5151 18.3195C56.395 18.3195 56.2696 18.2777 56.1703 18.1888C55.9561 18.0007 55.93 17.6663 56.1233 17.4521C56.8861 16.5847 57.675 15.7278 58.4692 14.9022C58.6677 14.6932 59.0021 14.688 59.2058 14.8917C59.4148 15.0903 59.4201 15.4247 59.2163 15.6285C58.4326 16.4384 57.6541 17.2849 56.9018 18.1418C56.7973 18.262 56.6562 18.3195 56.5099 18.3195H56.5151ZM61.3009 13.3764C61.1599 13.3764 61.024 13.319 60.9195 13.2092C60.721 13.0002 60.7367 12.6658 60.9457 12.4725C61.7868 11.6835 62.6593 10.9102 63.5423 10.1734C63.7618 9.98531 64.0909 10.0167 64.279 10.2361C64.4671 10.4556 64.4357 10.7848 64.2163 10.9729C63.349 11.6992 62.4922 12.462 61.6614 13.2354C61.5622 13.3294 61.4316 13.3764 61.3062 13.3764H61.3009ZM66.5622 8.95073C66.4054 8.95073 66.2487 8.87757 66.1442 8.74172C65.9718 8.51181 66.0136 8.18263 66.2487 8.01019C67.1735 7.31002 68.1191 6.63597 69.0752 5.99328C69.3156 5.8313 69.6395 5.894 69.8015 6.13436C69.9634 6.37472 69.9007 6.69868 69.6604 6.86066C68.7252 7.4929 67.79 8.1565 66.8809 8.84622C66.7868 8.91937 66.6771 8.95073 66.5674 8.95073H66.5622ZM72.2727 5.105C72.0951 5.105 71.9227 5.01617 71.8234 4.84897C71.6771 4.60338 71.7555 4.27942 72.0063 4.13312C73.0146 3.53222 74.0387 2.9679 75.047 2.45061C75.303 2.31998 75.6165 2.41926 75.7523 2.67529C75.883 2.93133 75.7837 3.24484 75.5277 3.38069C74.5402 3.88753 73.5371 4.4414 72.5444 5.03185C72.4608 5.0841 72.3668 5.105 72.2779 5.105H72.2727Z" fill="#F0C4BF"/>
<path d="M80.2978 160C80.2456 160 80.1881 159.99 80.1358 159.974C80.1097 159.963 79.5246 159.775 78.4953 159.336C78.2288 159.227 78.1034 158.918 78.2184 158.652C78.3281 158.385 78.6364 158.26 78.9028 158.375C79.8851 158.793 80.4545 158.981 80.4598 158.981C80.7367 159.07 80.883 159.368 80.7941 159.639C80.721 159.859 80.5172 160 80.2978 160Z" fill="#F0C4BF"/>
<path d="M2.24138 80.5147H0.522466C0.23511 80.5147 0 80.2795 0 79.9922C0 79.7048 0.23511 79.4696 0.522466 79.4696H2.24138C2.52874 79.4696 2.76385 79.7048 2.76385 79.9922C2.76385 80.2795 2.52874 80.5147 2.24138 80.5147Z" fill="#F0C4BF"/>
<path d="M154.305 80.5147H150.852C150.564 80.5147 150.329 80.2795 150.329 79.9922C150.329 79.7048 150.564 79.4696 150.852 79.4696H154.305C154.592 79.4696 154.828 79.7048 154.828 79.9922C154.828 80.2795 154.592 80.5147 154.305 80.5147ZM147.393 80.5147H143.939C143.652 80.5147 143.417 80.2795 143.417 79.9922C143.417 79.7048 143.652 79.4696 143.939 79.4696H147.393C147.68 79.4696 147.915 79.7048 147.915 79.9922C147.915 80.2795 147.68 80.5147 147.393 80.5147ZM140.481 80.5147H137.027C136.74 80.5147 136.505 80.2795 136.505 79.9922C136.505 79.7048 136.74 79.4696 137.027 79.4696H140.481C140.768 79.4696 141.003 79.7048 141.003 79.9922C141.003 80.2795 140.768 80.5147 140.481 80.5147ZM133.568 80.5147H130.115C129.828 80.5147 129.592 80.2795 129.592 79.9922C129.592 79.7048 129.828 79.4696 130.115 79.4696H133.568C133.856 79.4696 134.091 79.7048 134.091 79.9922C134.091 80.2795 133.856 80.5147 133.568 80.5147ZM126.656 80.5147H123.203C122.915 80.5147 122.68 80.2795 122.68 79.9922C122.68 79.7048 122.915 79.4696 123.203 79.4696H126.656C126.944 79.4696 127.179 79.7048 127.179 79.9922C127.179 80.2795 126.944 80.5147 126.656 80.5147ZM119.744 80.5147H116.29C116.003 80.5147 115.768 80.2795 115.768 79.9922C115.768 79.7048 116.003 79.4696 116.29 79.4696H119.744C120.031 79.4696 120.266 79.7048 120.266 79.9922C120.266 80.2795 120.031 80.5147 119.744 80.5147ZM112.832 80.5147H109.378C109.091 80.5147 108.856 80.2795 108.856 79.9922C108.856 79.7048 109.091 79.4696 109.378 79.4696H112.832C113.119 79.4696 113.354 79.7048 113.354 79.9922C113.354 80.2795 113.119 80.5147 112.832 80.5147ZM105.92 80.5147H102.466C102.179 80.5147 101.944 80.2795 101.944 79.9922C101.944 79.7048 102.179 79.4696 102.466 79.4696H105.92C106.207 79.4696 106.442 79.7048 106.442 79.9922C106.442 80.2795 106.207 80.5147 105.92 80.5147ZM99.0073 80.5147H95.5538C95.2665 80.5147 95.0314 80.2795 95.0314 79.9922C95.0314 79.7048 95.2665 79.4696 95.5538 79.4696H99.0073C99.2947 79.4696 99.5298 79.7048 99.5298 79.9922C99.5298 80.2795 99.2947 80.5147 99.0073 80.5147ZM92.0951 80.5147H88.6416C88.3542 80.5147 88.1191 80.2795 88.1191 79.9922C88.1191 79.7048 88.3542 79.4696 88.6416 79.4696H92.0951C92.3825 79.4696 92.6176 79.7048 92.6176 79.9922C92.6176 80.2795 92.3825 80.5147 92.0951 80.5147ZM85.1829 80.5147H81.7241C81.4368 80.5147 81.2017 80.2795 81.2017 79.9922C81.2017 79.7048 81.4368 79.4696 81.7241 79.4696H85.1829C85.4702 79.4696 85.7053 79.7048 85.7053 79.9922C85.7053 80.2795 85.4702 80.5147 85.1829 80.5147ZM78.2706 80.5147H74.8119C74.5246 80.5147 74.2895 80.2795 74.2895 79.9922C74.2895 79.7048 74.5246 79.4696 74.8119 79.4696H78.2706C78.558 79.4696 78.7931 79.7048 78.7931 79.9922C78.7931 80.2795 78.558 80.5147 78.2706 80.5147ZM71.3584 80.5147H67.8997C67.6123 80.5147 67.3772 80.2795 67.3772 79.9922C67.3772 79.7048 67.6123 79.4696 67.8997 79.4696H71.3584C71.6458 79.4696 71.8809 79.7048 71.8809 79.9922C71.8809 80.2795 71.6458 80.5147 71.3584 80.5147ZM64.4462 80.5147H60.9875C60.7001 80.5147 60.465 80.2795 60.465 79.9922C60.465 79.7048 60.7001 79.4696 60.9875 79.4696H64.4462C64.7336 79.4696 64.9687 79.7048 64.9687 79.9922C64.9687 80.2795 64.7336 80.5147 64.4462 80.5147ZM57.534 80.5147H54.0752C53.7879 80.5147 53.5528 80.2795 53.5528 79.9922C53.5528 79.7048 53.7879 79.4696 54.0752 79.4696H57.534C57.8213 79.4696 58.0564 79.7048 58.0564 79.9922C58.0564 80.2795 57.8213 80.5147 57.534 80.5147ZM50.6217 80.5147H47.163C46.8757 80.5147 46.6405 80.2795 46.6405 79.9922C46.6405 79.7048 46.8757 79.4696 47.163 79.4696H50.6217C50.9091 79.4696 51.1442 79.7048 51.1442 79.9922C51.1442 80.2795 50.9091 80.5147 50.6217 80.5147ZM43.7095 80.5147H40.2508C39.9634 80.5147 39.7283 80.2795 39.7283 79.9922C39.7283 79.7048 39.9634 79.4696 40.2508 79.4696H43.7095C43.9969 79.4696 44.232 79.7048 44.232 79.9922C44.232 80.2795 43.9969 80.5147 43.7095 80.5147ZM36.7973 80.5147H33.3438C33.0564 80.5147 32.8213 80.2795 32.8213 79.9922C32.8213 79.7048 33.0564 79.4696 33.3438 79.4696H36.7973C37.0846 79.4696 37.3198 79.7048 37.3198 79.9922C37.3198 80.2795 37.0846 80.5147 36.7973 80.5147ZM29.8851 80.5147H26.4316C26.1442 80.5147 25.9091 80.2795 25.9091 79.9922C25.9091 79.7048 26.1442 79.4696 26.4316 79.4696H29.8851C30.1724 79.4696 30.4075 79.7048 30.4075 79.9922C30.4075 80.2795 30.1724 80.5147 29.8851 80.5147ZM22.9728 80.5147H19.5193C19.232 80.5147 18.9969 80.2795 18.9969 79.9922C18.9969 79.7048 19.232 79.4696 19.5193 79.4696H22.9728C23.2602 79.4696 23.4953 79.7048 23.4953 79.9922C23.4953 80.2795 23.2602 80.5147 22.9728 80.5147ZM16.0658 80.5147H12.6123C12.325 80.5147 12.0899 80.2795 12.0899 79.9922C12.0899 79.7048 12.325 79.4696 12.6123 79.4696H16.0658C16.3532 79.4696 16.5883 79.7048 16.5883 79.9922C16.5883 80.2795 16.3532 80.5147 16.0658 80.5147ZM9.15361 80.5147H5.70011C5.41275 80.5147 5.17764 80.2795 5.17764 79.9922C5.17764 79.7048 5.41275 79.4696 5.70011 79.4696H9.15361C9.44097 79.4696 9.67608 79.7048 9.67608 79.9922C9.67608 80.2795 9.44097 80.5147 9.15361 80.5147Z" fill="#F0C4BF"/>
<path d="M159.478 80.5147H157.759C157.471 80.5147 157.236 80.2795 157.236 79.9922C157.236 79.7048 157.471 79.4696 157.759 79.4696H159.478C159.765 79.4696 160 79.7048 160 79.9922C160 80.2795 159.765 80.5147 159.478 80.5147Z" fill="#F0C4BF"/>
<path d="M19.9373 31.1159C19.8276 31.1159 19.7179 31.0845 19.6238 31.0114C18.7147 30.3321 18.2654 29.9298 18.2445 29.9141C18.0303 29.7208 18.0094 29.3916 18.2027 29.1774C18.396 28.9631 18.7252 28.9422 18.9394 29.1356C18.9394 29.1356 19.3783 29.5274 20.2456 30.1754C20.4754 30.3478 20.5225 30.677 20.35 30.9069C20.2456 31.0427 20.0888 31.1159 19.9321 31.1159H19.9373Z" fill="#F0C4BF"/>
<path d="M78.3281 47.1885C77.1787 47.1781 76.0293 47.1519 74.9007 47.1154C74.6134 47.1049 74.3835 46.8646 74.394 46.5772C74.4044 46.2898 74.6447 46.0651 74.9321 46.0703C76.0502 46.1069 77.1944 46.133 78.3333 46.1435C78.6207 46.1435 78.8558 46.3839 78.8506 46.6712C78.8506 46.9586 78.6155 47.1885 78.3281 47.1885ZM81.7503 47.1885C81.4629 47.1885 81.233 46.9586 81.2278 46.6712C81.2278 46.3839 81.4577 46.1487 81.7451 46.1435C82.8788 46.133 84.023 46.1069 85.1463 46.0703C85.4128 46.0547 85.674 46.2846 85.6844 46.5772C85.6949 46.8646 85.4702 47.1049 85.1777 47.1154C84.0491 47.1519 82.8945 47.1781 81.7503 47.1938H81.7451L81.7503 47.1885ZM71.5099 46.9586C71.5099 46.9586 71.489 46.9586 71.4786 46.9586C70.3396 46.8959 69.1902 46.8123 68.0617 46.7235C67.7743 46.7026 67.5601 46.4466 67.581 46.1592C67.6019 45.8718 67.8631 45.6576 68.1453 45.6785C69.2633 45.7673 70.4075 45.8509 71.5413 45.9136C71.8286 45.9293 72.0481 46.1748 72.0324 46.4675C72.0167 46.7444 71.7868 46.9586 71.5099 46.9586ZM88.5737 46.9586C88.2968 46.9586 88.0669 46.7444 88.0512 46.4675C88.0355 46.1801 88.255 45.9345 88.5423 45.9136C89.6761 45.8509 90.8151 45.7725 91.9384 45.6837C92.2309 45.6576 92.4765 45.877 92.5026 46.1644C92.5235 46.4518 92.3093 46.7026 92.022 46.7287C90.8934 46.8175 89.744 46.8959 88.605 46.9638C88.5946 46.9638 88.5841 46.9638 88.5737 46.9638V46.9586ZM95.3814 46.41C95.115 46.41 94.8903 46.2114 94.8642 45.9397C94.8328 45.6523 95.0418 45.3963 95.3292 45.3649C96.4525 45.2448 97.5914 45.1141 98.7095 44.9626C98.9969 44.926 99.2581 45.1246 99.2947 45.412C99.3313 45.6994 99.1327 45.9606 98.8454 45.9972C97.7221 46.1435 96.5779 46.2793 95.4441 46.3995C95.4232 46.3995 95.4075 46.3995 95.3866 46.3995L95.3814 46.41ZM64.7022 46.4047C64.7022 46.4047 64.6656 46.4047 64.6447 46.4047C63.5058 46.2846 62.3616 46.1435 61.2435 45.9972C60.9561 45.9606 60.7576 45.6941 60.7942 45.412C60.8307 45.1246 61.0972 44.926 61.3793 44.9626C62.487 45.1089 63.6259 45.2448 64.7545 45.3702C65.0418 45.4015 65.2508 45.6576 65.2195 45.9449C65.1933 46.2114 64.9634 46.41 64.7022 46.41V46.4047ZM102.147 45.5165C101.897 45.5165 101.672 45.3336 101.63 45.0776C101.583 44.7902 101.782 44.5237 102.064 44.4819C103.182 44.3042 104.31 44.1109 105.413 43.9019C105.695 43.8496 105.972 44.0377 106.024 44.3199C106.076 44.6021 105.888 44.8738 105.606 44.9313C104.493 45.1403 103.354 45.3336 102.226 45.5165C102.2 45.5165 102.168 45.5217 102.142 45.5217L102.147 45.5165ZM57.9363 45.5008C57.9102 45.5008 57.8788 45.5008 57.8527 45.4956C56.7294 45.3127 55.5904 45.1141 54.4723 44.9051C54.1902 44.8529 54.0021 44.5759 54.0596 44.2938C54.1118 44.0116 54.3887 43.8235 54.6709 43.8758C55.7785 44.0848 56.9018 44.2833 58.0199 44.461C58.3072 44.508 58.5005 44.7745 58.4535 45.0619C58.4117 45.3179 58.1923 45.5008 57.9363 45.5008ZM108.861 44.2624C108.621 44.2624 108.406 44.0952 108.349 43.8496C108.286 43.5675 108.469 43.2906 108.751 43.2278C109.859 42.9875 110.977 42.7262 112.064 42.4597C112.341 42.3918 112.628 42.559 112.696 42.8412C112.764 43.1233 112.597 43.4055 112.315 43.4734C111.217 43.7451 110.094 44.0064 108.971 44.252C108.934 44.2624 108.898 44.2624 108.861 44.2624ZM51.2278 44.2206C51.1912 44.2206 51.1547 44.2206 51.1129 44.2102C49.9948 43.9646 48.8715 43.6981 47.7743 43.4212C47.4922 43.348 47.325 43.0659 47.3981 42.7889C47.4713 42.5068 47.7534 42.3396 48.0303 42.4127C49.117 42.6897 50.2299 42.9509 51.3375 43.1965C51.6197 43.2592 51.7973 43.5361 51.7346 43.8183C51.6824 44.0639 51.4629 44.2259 51.2226 44.2259L51.2278 44.2206ZM115.491 42.6165C115.261 42.6165 115.052 42.465 114.99 42.2351C114.911 41.9581 115.073 41.6707 115.35 41.5924C116.442 41.2841 117.539 40.9549 118.605 40.6205C118.882 40.5317 119.175 40.6832 119.258 40.9601C119.347 41.2371 119.195 41.5297 118.919 41.6133C117.842 41.9529 116.735 42.2873 115.632 42.5956C115.585 42.6113 115.538 42.6165 115.491 42.6165ZM44.6029 42.5486C44.5559 42.5486 44.5089 42.5433 44.4566 42.5277C43.3542 42.2089 42.2518 41.8745 41.1756 41.5244C40.8987 41.4356 40.7524 41.143 40.8412 40.8661C40.93 40.5944 41.2226 40.4428 41.4995 40.5317C42.5653 40.8765 43.6573 41.2109 44.7492 41.5244C45.0261 41.6028 45.1881 41.8954 45.1097 42.1724C45.0418 42.4023 44.8328 42.5486 44.6082 42.5486H44.6029ZM122.001 40.5473C121.787 40.5473 121.583 40.4115 121.51 40.1972C121.416 39.9255 121.557 39.6277 121.829 39.5284C122.9 39.147 123.971 38.7446 125.01 38.3371C125.277 38.2326 125.58 38.3632 125.69 38.6297C125.794 38.8962 125.664 39.1992 125.397 39.309C124.347 39.7218 123.265 40.1293 122.184 40.516C122.126 40.5369 122.069 40.5473 122.012 40.5473H122.001ZM38.1087 40.4481C38.0512 40.4481 37.9885 40.4376 37.931 40.4167C36.8495 40.0248 35.768 39.612 34.7231 39.1888C34.4566 39.0791 34.326 38.776 34.4358 38.5095C34.5455 38.243 34.8485 38.1124 35.115 38.2221C36.1494 38.6401 37.2153 39.0477 38.2863 39.4396C38.558 39.5389 38.6991 39.8367 38.5998 40.1084C38.5214 40.3227 38.3229 40.4533 38.1087 40.4533V40.4481ZM128.349 38.034C128.15 38.034 127.957 37.9191 127.868 37.7205C127.753 37.454 127.868 37.1457 128.135 37.0308C129.18 36.571 130.214 36.085 131.212 35.5991C131.473 35.4737 131.787 35.5782 131.912 35.8395C132.038 36.1007 131.933 36.4142 131.672 36.5396C130.664 37.036 129.613 37.522 128.558 37.9922C128.49 38.0236 128.417 38.0393 128.349 38.0393V38.034ZM31.7764 37.8825C31.7033 37.8825 31.6301 37.8668 31.5622 37.8355C30.512 37.36 29.4671 36.8636 28.4587 36.3567C28.2027 36.2261 28.0982 35.9126 28.2289 35.6566C28.3595 35.4005 28.6729 35.296 28.929 35.4267C29.9216 35.9283 30.9509 36.4194 31.9906 36.8845C32.2518 37.0047 32.372 37.313 32.2518 37.5742C32.163 37.7675 31.9749 37.8825 31.7764 37.8825ZM134.472 35.0139C134.289 35.0139 134.107 34.9146 134.013 34.7422C133.871 34.4914 133.966 34.1726 134.216 34.0315C135.23 33.4724 136.217 32.8977 137.142 32.3229C137.388 32.1714 137.712 32.2445 137.863 32.4901C138.015 32.7357 137.941 33.0597 137.696 33.2112C136.755 33.7964 135.752 34.3816 134.723 34.9512C134.645 34.993 134.556 35.0139 134.472 35.0139ZM25.6792 34.8049C25.5904 34.8049 25.5068 34.784 25.4232 34.7369C24.3992 34.1569 23.4013 33.5613 22.4713 32.9656C22.2257 32.8089 22.1578 32.4849 22.3145 32.2445C22.4713 32.0042 22.79 31.931 23.0355 32.0878C23.9551 32.673 24.9321 33.2582 25.9405 33.8278C26.1912 33.9688 26.2801 34.2876 26.139 34.5384C26.0449 34.7108 25.8673 34.8049 25.6844 34.8049H25.6792Z" fill="#F0C4BF"/>
<path d="M140.277 31.3772C140.115 31.3772 139.958 31.304 139.854 31.1629C139.681 30.9278 139.734 30.6038 139.969 30.4314C140.841 29.7939 141.285 29.4125 141.29 29.4125C141.51 29.2244 141.839 29.2453 142.027 29.4648C142.215 29.6842 142.194 30.0134 141.975 30.2015C141.954 30.2172 141.499 30.6143 140.585 31.2779C140.491 31.3458 140.387 31.3772 140.277 31.3772Z" fill="#F0C4BF"/>
<path d="M18.5946 131.073C18.4483 131.073 18.3072 131.016 18.2027 130.901C18.0094 130.687 18.0303 130.358 18.2445 130.164C18.2654 130.149 18.7147 129.746 19.6238 129.067C19.8537 128.895 20.1829 128.942 20.3553 129.171C20.5277 129.401 20.4807 129.731 20.2508 129.903C19.3835 130.546 18.9498 130.938 18.9446 130.943C18.8453 131.032 18.72 131.073 18.5998 131.073H18.5946Z" fill="#F0C4BF"/>
<path d="M22.7482 128.074C22.5758 128.074 22.4086 127.991 22.3093 127.834C22.1526 127.593 22.2257 127.27 22.466 127.113C23.396 126.517 24.3887 125.921 25.418 125.341C25.6688 125.2 25.9875 125.289 26.1285 125.54C26.2696 125.791 26.1808 126.11 25.93 126.251C24.9164 126.82 23.9394 127.405 23.0251 127.991C22.9363 128.048 22.8422 128.074 22.7429 128.074H22.7482ZM137.393 127.776C137.299 127.776 137.205 127.75 137.116 127.698C136.191 127.123 135.209 126.548 134.19 125.995C133.939 125.854 133.845 125.54 133.981 125.284C134.117 125.033 134.436 124.939 134.692 125.075C135.726 125.645 136.729 126.225 137.665 126.81C137.91 126.961 137.983 127.285 137.832 127.531C137.732 127.688 137.56 127.776 137.388 127.776H137.393ZM28.6938 124.714C28.5005 124.714 28.3177 124.61 28.2288 124.427C28.0982 124.171 28.2027 123.852 28.4587 123.727C29.4619 123.22 30.5068 122.724 31.5622 122.248C31.8234 122.128 32.1369 122.248 32.2518 122.509C32.372 122.771 32.2518 123.084 31.9906 123.199C30.9457 123.669 29.9164 124.161 28.9289 124.657C28.8558 124.694 28.7722 124.714 28.6938 124.714ZM131.411 124.485C131.332 124.485 131.254 124.469 131.181 124.432C130.188 123.946 129.154 123.466 128.103 123.006C127.837 122.891 127.717 122.583 127.837 122.316C127.952 122.055 128.26 121.929 128.527 122.05C129.592 122.515 130.637 123.006 131.641 123.497C131.902 123.622 132.006 123.936 131.881 124.197C131.792 124.385 131.604 124.49 131.411 124.49V124.485ZM34.9112 121.903C34.7022 121.903 34.5089 121.778 34.4253 121.579C34.3156 121.313 34.4462 121.005 34.7126 120.9C35.7523 120.482 36.8286 120.064 37.9206 119.672C38.1923 119.578 38.4901 119.714 38.5893 119.986C38.6886 120.257 38.5475 120.555 38.2759 120.654C37.1996 121.046 36.1337 121.454 35.1045 121.867C35.0418 121.893 34.9739 121.903 34.9112 121.903ZM125.162 121.736C125.099 121.736 125.031 121.726 124.969 121.7C123.934 121.287 122.863 120.89 121.787 120.508C121.515 120.414 121.374 120.111 121.468 119.839C121.562 119.568 121.86 119.427 122.137 119.521C123.224 119.902 124.305 120.31 125.355 120.722C125.622 120.827 125.758 121.13 125.648 121.402C125.569 121.605 125.371 121.731 125.162 121.731V121.736ZM41.3271 119.573C41.1076 119.573 40.9039 119.432 40.8307 119.212C40.7419 118.935 40.8934 118.643 41.1651 118.554C42.2414 118.204 43.3438 117.869 44.4462 117.551C44.7231 117.472 45.0104 117.629 45.094 117.911C45.1724 118.188 45.0105 118.476 44.7335 118.559C43.6416 118.873 42.5496 119.207 41.4838 119.552C41.4316 119.568 41.3741 119.578 41.3218 119.578L41.3271 119.573ZM118.73 119.458C118.678 119.458 118.626 119.447 118.574 119.432C117.503 119.092 116.405 118.768 115.319 118.46C115.042 118.382 114.88 118.094 114.958 117.817C115.037 117.54 115.329 117.378 115.601 117.457C116.703 117.765 117.806 118.094 118.887 118.434C119.164 118.523 119.316 118.815 119.227 119.092C119.159 119.317 118.95 119.458 118.73 119.458ZM47.8892 117.692C47.6541 117.692 47.4451 117.535 47.3824 117.295C47.3145 117.013 47.4817 116.73 47.7586 116.662C48.861 116.386 49.9843 116.119 51.0972 115.873C51.3793 115.811 51.6562 115.988 51.7189 116.271C51.7816 116.553 51.604 116.83 51.3218 116.892C50.2194 117.133 49.1066 117.399 48.0146 117.676C47.9728 117.687 47.931 117.692 47.884 117.692H47.8892ZM112.158 117.613C112.116 117.613 112.074 117.613 112.032 117.598C110.94 117.326 109.822 117.07 108.72 116.835C108.438 116.772 108.26 116.495 108.318 116.213C108.38 115.931 108.657 115.748 108.939 115.811C110.052 116.051 111.176 116.312 112.278 116.584C112.56 116.652 112.727 116.934 112.659 117.216C112.602 117.451 112.388 117.613 112.153 117.613H112.158ZM54.5559 116.218C54.3103 116.218 54.0909 116.046 54.0439 115.795C53.9916 115.513 54.1745 115.236 54.4619 115.184C55.5643 114.975 56.698 114.776 57.837 114.593C58.1191 114.546 58.3908 114.74 58.4378 115.027C58.4848 115.314 58.2915 115.581 58.0042 115.628C56.8756 115.811 55.7471 116.009 54.6552 116.213C54.6238 116.218 54.5872 116.224 54.5559 116.224V116.218ZM105.486 116.171C105.455 116.171 105.423 116.171 105.392 116.161C104.3 115.957 103.171 115.764 102.043 115.586C101.761 115.539 101.562 115.273 101.609 114.99C101.651 114.708 101.923 114.51 102.205 114.557C103.344 114.734 104.483 114.933 105.585 115.137C105.867 115.189 106.055 115.461 106.003 115.748C105.956 115.999 105.737 116.176 105.491 116.176L105.486 116.171ZM61.2957 115.131C61.0397 115.131 60.815 114.938 60.7785 114.677C60.7419 114.389 60.9404 114.128 61.2278 114.092C62.3511 113.94 63.4953 113.804 64.629 113.684C64.9164 113.653 65.1724 113.862 65.2038 114.149C65.2351 114.437 65.0261 114.693 64.7388 114.724C63.6155 114.844 62.4817 114.98 61.3636 115.131C61.3427 115.131 61.3166 115.131 61.2957 115.131ZM98.7409 115.111C98.7409 115.111 98.6938 115.111 98.6729 115.111C97.5705 114.964 96.4316 114.834 95.2978 114.713C95.0104 114.682 94.8015 114.426 94.8328 114.139C94.8642 113.851 95.1149 113.637 95.4075 113.674C96.5517 113.794 97.6959 113.93 98.8088 114.076C99.0961 114.113 99.2947 114.374 99.2581 114.661C99.2215 114.922 98.9969 115.116 98.7409 115.116V115.111ZM68.0825 114.405C67.8109 114.405 67.5862 114.201 67.5601 113.924C67.5392 113.637 67.7534 113.386 68.0407 113.36C69.1745 113.266 70.3239 113.188 71.4577 113.125C71.7503 113.115 71.9906 113.329 72.0115 113.616C72.0272 113.904 71.8077 114.149 71.5204 114.165C70.3971 114.228 69.2529 114.311 68.1296 114.4C68.1139 114.4 68.0982 114.4 68.0878 114.4L68.0825 114.405ZM91.954 114.395C91.954 114.395 91.9279 114.395 91.9122 114.395C90.7941 114.306 89.6499 114.228 88.5214 114.165C88.2341 114.149 88.0146 113.904 88.0303 113.616C88.046 113.329 88.2968 113.109 88.5789 113.125C89.7179 113.188 90.8673 113.266 91.9958 113.355C92.2832 113.381 92.4974 113.632 92.4765 113.919C92.4556 114.191 92.2257 114.4 91.954 114.4V114.395ZM74.8955 114.013C74.6134 114.013 74.3835 113.789 74.373 113.506C74.3626 113.219 74.5873 112.979 74.8798 112.968C76.0084 112.932 77.1578 112.906 78.302 112.89C78.5632 112.89 78.8245 113.12 78.8297 113.407C78.8297 113.695 78.5998 113.93 78.3124 113.935C77.1735 113.951 76.0293 113.971 74.9112 114.008C74.906 114.008 74.9007 114.008 74.8955 114.008V114.013ZM85.1358 114.013C85.1358 114.013 85.1254 114.013 85.1202 114.013C84.0073 113.977 82.8631 113.951 81.7189 113.94C81.4316 113.94 81.1964 113.7 81.2017 113.412C81.2017 113.125 81.4368 112.895 81.7241 112.895H81.7294C82.884 112.911 84.0334 112.932 85.1515 112.968C85.4389 112.979 85.6635 113.219 85.6583 113.506C85.6479 113.789 85.418 114.013 85.1358 114.013Z" fill="#F0C4BF"/>
<path d="M141.609 130.729C141.489 130.729 141.369 130.687 141.27 130.603C141.27 130.603 140.82 130.217 139.948 129.584C139.713 129.417 139.66 129.088 139.833 128.853C140 128.618 140.329 128.565 140.564 128.738C141.484 129.401 141.938 129.799 141.959 129.814C142.179 130.002 142.2 130.331 142.011 130.551C141.907 130.671 141.761 130.734 141.614 130.734L141.609 130.729Z" fill="#F0C4BF"/>
<path d="M125.225 103.892C125.225 105.784 123.694 107.315 121.803 107.315C119.911 107.315 118.38 105.784 118.38 103.892C118.38 102.001 119.911 100.47 121.803 100.47C123.694 100.47 125.225 102.001 125.225 103.892Z" fill="#F0C4BF"/>
<path d="M11.6928 45.7725C11.6928 47.664 10.162 49.195 8.27063 49.195C6.37931 49.195 4.84848 47.664 4.84848 45.7725C4.84848 43.881 6.37931 42.35 8.27063 42.35C10.162 42.35 11.6928 43.881 11.6928 45.7725Z" fill="#F0C4BF"/>
<path d="M45.465 118.998C45.465 120.89 43.9342 122.421 42.0429 122.421C40.1515 122.421 38.6207 120.89 38.6207 118.998C38.6207 117.107 40.1515 115.576 42.0429 115.576C43.9342 115.576 45.465 117.107 45.465 118.998Z" fill="#F0C4BF"/>
<path d="M53.8715 25.6295C53.8715 27.521 52.3406 29.052 50.4493 29.052C48.558 29.052 47.0272 27.521 47.0272 25.6295C47.0272 23.738 48.558 22.207 50.4493 22.207C52.3406 22.207 53.8715 23.738 53.8715 25.6295Z" fill="#F0C4BF"/>
<path d="M97.7952 9.69792C97.7952 11.5894 96.2644 13.1204 94.3731 13.1204C92.4817 13.1204 90.9509 11.5894 90.9509 9.69792C90.9509 7.80641 92.4817 6.27544 94.3731 6.27544C96.2644 6.27544 97.7952 7.80641 97.7952 9.69792Z" fill="#F0C4BF"/>
<path d="M22 77.5C22 69.4863 28.4862 63 36.5 63C44.5137 63 51 69.4863 51 77.5C51 85.5138 44.5137 92 36.5 92C28.4862 92 22 85.5138 22 77.5Z" fill="#F0C4BF"/>
<circle cx="37" cy="79" r="14" transform="rotate(-180 37 79)" fill="white"/>
<path d="M30.5901 77.8583C30.5901 81.1218 33.2357 83.7674 36.4993 83.7674M30.5901 77.8583C30.5901 76.4339 31.0941 75.1272 31.9334 74.1068M30.5901 77.8583H35.8818M42.4084 77.8583C42.4084 74.5947 39.7628 71.9491 36.4993 71.9491M42.4084 77.8583H38.8629M42.4084 77.8583C42.4084 78.8424 42.1678 79.7704 41.7422 80.5866M36.4993 71.9491C37.894 73.476 38.7206 75.432 38.8477 77.4888C38.8553 77.6116 38.8603 77.7348 38.8629 77.8583M36.4993 71.9491C35.3615 71.9491 34.2989 72.2706 33.3973 72.8278M36.4993 71.9491C35.9056 72.599 35.4149 73.3267 35.0372 74.1068M38.8629 77.8583C38.8621 77.9 38.8595 77.7844 38.858 77.826M36.4993 83.7674C35.0212 82.1493 34.1812 80.0494 34.1356 77.8583C34.1469 77.3159 34.2069 76.779 34.3131 76.2537M36.4993 83.7674C37.3864 82.7962 38.0437 81.6514 38.4373 80.4175M36.4993 83.7674C37.9257 83.7674 39.2342 83.262 40.2552 82.4204" stroke="#CC3929" stroke-width="0.8" stroke-linecap="round" stroke-linejoin="round"/>
<path d="M29.9998 71.9491L43 84.9493" stroke="#CC3929" stroke-width="0.8" stroke-linecap="round" stroke-linejoin="round"/>
<path d="M132 45.5C132 53.5137 125.514 60 117.5 60C109.486 60 103 53.5137 103 45.5C103 37.4862 109.486 31 117.5 31C125.514 31 132 37.4862 132 45.5Z" fill="#F0C4BF"/>
<circle cx="117" cy="44" r="14" fill="white"/>
<path d="M111.59 44.8583C111.59 48.1218 114.236 50.7674 117.499 50.7674M111.59 44.8583C111.59 43.4339 112.094 42.1272 112.933 41.1068M111.59 44.8583H116.882M123.408 44.8583C123.408 41.5947 120.763 38.9491 117.499 38.9491M123.408 44.8583H119.863M123.408 44.8583C123.408 45.8424 123.168 46.7704 122.742 47.5866M117.499 38.9491C118.894 40.476 119.721 42.432 119.848 44.4888C119.855 44.6116 119.86 44.7348 119.863 44.8583M117.499 38.9491C116.362 38.9491 115.299 39.2706 114.397 39.8278M117.499 38.9491C116.906 39.599 116.415 40.3267 116.037 41.1068M119.863 44.8583C119.862 44.9 119.859 44.7844 119.858 44.826M117.499 50.7674C116.021 49.1493 115.181 47.0494 115.136 44.8583C115.147 44.3159 115.207 43.779 115.313 43.2537M117.499 50.7674C118.386 49.7962 119.044 48.6514 119.437 47.4175M117.499 50.7674C118.926 50.7674 120.234 50.262 121.255 49.4204" stroke="#CC3929" stroke-width="0.8" stroke-linecap="round" stroke-linejoin="round"/>
<path d="M111 38.9491L124 51.9493" stroke="#CC3929" stroke-width="0.8" stroke-linecap="round" stroke-linejoin="round"/>
</g>
<g clip-path="url(#clip1_45_1577)">
<path d="M69.7662 124.663C63.2146 126.476 43.3717 131.185 43.3717 141.335C53.9307 141.335 100.715 142.241 109.634 142.241C109.634 136.444 105.445 130.641 83.9683 124.663H69.7662Z" fill="#CC3929"/>
<path d="M60.5469 100.013C57.9322 89.8636 58.8253 85.8332 62.1217 82.5516C65.4181 79.2699 90.7138 70.1621 92.6646 81.5747C99.3455 90.4544 95.8141 93.9057 93.1523 100.013C79.056 102.37 76.0946 105.266 60.5528 100.013H60.5469Z" fill="#3A3845"/>
<path d="M92.0712 82.7505C92.5118 83.8912 90.6433 84.5697 89.8618 84.8037C88.9275 85.0786 87.958 85.1781 86.9944 85.2892C87.0355 85.1781 87.0766 85.0669 87.1178 84.9558C88.1225 86.0497 86.6066 86.7282 85.6782 86.933C84.2268 87.2488 82.7108 87.1903 81.2419 87.0441C78.4156 86.7692 75.6186 86.0789 72.9568 85.0962C76.4941 85.9502 80.1137 86.7984 83.7744 86.6873C84.7204 86.658 86.1659 86.6697 86.9004 85.9678C87.3117 85.5758 86.5654 85.2132 86.8357 84.9558C86.9885 84.8095 87.4468 84.8739 87.6407 84.8563C88.5574 84.7978 92.5412 84.4878 92.0653 82.7563C92.1005 82.8792 92.1123 82.8733 92.0653 82.7563L92.0712 82.7505Z" fill="#605D73"/>
<path d="M85.4137 82.2591C84.6557 83.1833 83.3337 83.6221 82.2055 83.8678C80.6484 84.2129 79.1089 84.1076 77.5341 84.0023C74.7901 83.7215 72.1401 82.7505 69.6252 81.68C72.1812 82.3995 74.7255 83.2126 77.3755 83.5168C78.8386 83.6864 80.2841 83.7625 81.7472 83.6045C82.9929 83.47 84.4618 83.1249 85.4137 82.265V82.2591Z" fill="#605D73"/>
<path d="M92.0418 99.1587C89.2625 98.8311 91.3954 94.9411 88.7101 92.3673C85.8779 89.653 81.5474 88.0268 78.0924 88.0268C75.031 88.0268 69.5782 89.1207 67.5334 91.9812C64.9539 95.5904 66.8518 98.2169 62.1158 99.5916C59.3247 96.813 57.3857 98.3807 57.9909 103.095C58.5433 107.366 61.0816 107.664 62.7269 106.512C63.6553 111.431 65.753 115.941 69.7662 118.334V124.657C68.3266 130.197 71.2705 135.684 76.7057 135.684C82.1409 135.684 85.59 129.834 83.9683 124.657V118.293C87.9404 115.918 90.2379 111.525 91.3484 106.74C92.9819 107.594 95.1971 107.05 95.7083 103.095C96.2783 98.6556 94.586 97.006 92.0535 99.1587H92.0418Z" fill="#FCDD99"/>
<path d="M72.9627 101.727C72.9627 102.323 72.475 102.815 71.8698 102.815C71.2646 102.815 70.7769 102.329 70.7769 101.727C70.7769 101.124 71.2646 100.639 71.8698 100.639C72.475 100.639 72.9627 101.124 72.9627 101.727Z" fill="#3A3845"/>
<path d="M83.6451 101.727C83.6451 102.323 83.1574 102.815 82.5522 102.815C81.947 102.815 81.4593 102.329 81.4593 101.727C81.4593 101.124 81.947 100.639 82.5522 100.639C83.1574 100.639 83.6451 101.124 83.6451 101.727Z" fill="#3A3845"/>
<path d="M69.6252 98.9715C69.9484 96.7486 73.5679 96.7896 73.9322 98.9715C73.2682 98.913 72.6336 98.7609 71.9638 98.7317C71.1823 98.7024 70.3949 98.8838 69.6252 98.9715Z" fill="#3A3845"/>
<path d="M84.8026 98.9715C84.0858 98.8896 83.3454 98.7141 82.6227 98.7375C81.9176 98.6439 81.189 98.913 80.4956 98.9715C80.8599 96.7896 84.4795 96.7486 84.8026 98.9715Z" fill="#3A3845"/>
<path d="M73.3446 110.946C74.2672 111.501 75.4423 112.004 76.5352 112.01C77.9572 112.022 79.0736 111.566 80.3252 110.946C79.3146 112.016 78.0982 112.648 76.5881 112.589C75.3894 112.543 74.0615 111.911 73.3446 110.946Z" fill="#E0A01A"/>
<path d="M77.5518 102.171C78.3568 103.16 78.9385 104.494 79.0502 105.769C79.0854 106.518 78.9033 107.465 78.0983 107.758C77.5048 108.027 76.8349 107.869 76.2473 107.682C76.7468 107.664 77.2815 107.664 77.7457 107.453C78.4802 107.12 78.5213 106.289 78.4449 105.587C78.3157 104.423 77.8985 103.289 77.5518 102.177V102.171Z" fill="#E0A01A"/>
<path d="M69.7662 118.462C71.9403 119.398 74.5316 120.001 76.9054 119.907C78.2863 119.89 79.6142 119.708 80.9539 119.387C81.9998 119.135 82.9694 118.656 83.9683 118.258C81.8294 119.703 79.4908 120.44 76.9054 120.492C74.5198 120.551 71.7288 119.861 69.7662 118.468V118.462Z" fill="#E0A01A"/>
<path d="M62.1217 101.586C60.688 100.639 59.266 100.323 59.7067 102.967C60.1474 105.611 61.1522 106.026 62.3038 104.88C61.8631 103.71 61.7456 102.674 62.1217 101.586Z" fill="#E0A01A"/>
<path d="M91.6833 101.586C93.117 100.639 94.539 100.323 94.0983 102.967C93.6576 105.611 92.6528 106.026 91.5012 104.88C91.9419 103.71 92.0594 102.674 91.6833 101.586Z" fill="#E0A01A"/>
<path d="M111.086 176.549C111.009 177.374 110.433 178 109.628 178H43.3717C42.5667 178 42.0261 177.362 41.9144 176.549L39 139.34C39 138.538 39.6522 137.889 40.4572 137.889H112.549C113.354 137.889 114.006 138.538 114.006 139.34L111.091 176.549H111.086Z" fill="#40485B"/>
<path d="M41.3268 169.009L41.9144 176.549C42.0261 177.362 42.5667 178 43.3717 178H109.634C110.439 178 111.015 177.374 111.091 176.549L113.189 149.805C96.6896 162.744 55.1822 167.687 41.3327 169.009H41.3268Z" fill="#4A546B"/>
</g>
<defs>
<clipPath id="clip0_45_1577">
<rect width="160" height="160" fill="white"/>
</clipPath>
<clipPath id="clip1_45_1577">
<rect width="75" height="102" fill="white" transform="translate(39 76)"/>
</clipPath>
</defs>
</svg>
